<?xml version="1.0" encoding="UTF-8" standalone="no"?>
<svg
   xmlns:dc="http://purl.org/dc/elements/1.1/"
   xmlns:cc="http://creativecommons.org/ns#"
   xmlns:rdf="http://www.w3.org/1999/02/22-rdf-syntax-ns#"
   xmlns:svg="http://www.w3.org/2000/svg"
   xmlns="http://www.w3.org/2000/svg"
   xmlns:xlink="http://www.w3.org/1999/xlink"
   xmlns:sodipodi="http://sodipodi.sourceforge.net/DTD/sodipodi-0.dtd"
   xmlns:inkscape="http://www.inkscape.org/namespaces/inkscape"
   id="svg6032"
   version="1.1"
   viewBox="0 0 297 230"
   height="230mm"
   width="297mm"
   sodipodi:docname="all.svg"
   inkscape:version="0.92.1 r15371">
  <sodipodi:namedview
     pagecolor="#ffffff"
     bordercolor="#666666"
     borderopacity="1"
     objecttolerance="10"
     gridtolerance="10"
     guidetolerance="10"
     inkscape:pageopacity="0"
     inkscape:pageshadow="2"
     inkscape:window-width="1920"
     inkscape:window-height="996"
     id="namedview19"
     showgrid="false"
     inkscape:zoom="0.54297101"
     inkscape:cx="1054.0044"
     inkscape:cy="491.57857"
     inkscape:window-x="-8"
     inkscape:window-y="-8"
     inkscape:window-maximized="1"
     inkscape:current-layer="svg6032" />
  <defs
     id="defs6026">
    <linearGradient
       gradientTransform="matrix(0.99691752,0,0,1.099927,0.30708,-0.074266)"
       y2="143.71715"
       x2="125.3494"
       y1="0.46069074"
       x1="124.81487"
       gradientUnits="userSpaceOnUse"
       id="linearGradient4572"
       xlink:href="#linearGradient4564" />
    <linearGradient
       id="linearGradient4564">
      <stop
         id="stop4560"
         offset="0"
         style="stop-color:#ffb380;stop-opacity:1;" />
      <stop
         id="stop4562"
         offset="1"
         style="stop-color:#ffffea;stop-opacity:1" />
    </linearGradient>
  </defs>
  <metadata
     id="metadata6029">
    <rdf:RDF>
      <cc:Work
         rdf:about="">
        <dc:format>image/svg+xml</dc:format>
        <dc:type
           rdf:resource="http://purl.org/dc/dcmitype/StillImage" />
        <dc:title />
      </cc:Work>
    </rdf:RDF>
  </metadata>
  <rect
     style="fill:url(#linearGradient4572);fill-opacity:1;stroke:#000000;stroke-width:0.27706012;stroke-opacity:1"
     id="back_sky"
     width="296.55405"
     height="209.89954"
     x="0.30706993"
     y="0.13848114"
     inkscape:label="#rect4558" />
  <path
     inkscape:connector-curvature="0"
     style="fill:#e6e6e6;fill-opacity:1;stroke-width:0.26428244"
     d="m 90.84737,137.77434 a 19.050867,4.6810147 0 0 0 -18.7986,3.95854 35.970165,2.2736357 0 0 0 -26.63024,-0.74889 35.970165,2.2736357 0 0 0 -35.9703,2.27354 35.970165,2.2736357 0 0 0 33.49594,2.26578 23.180774,3.744812 0 0 0 -0.98964,1.07782 23.180774,3.744812 0 0 0 23.18064,3.74493 23.180774,3.744812 0 0 0 9.26588,-0.31703 15.853517,2.2736357 0 0 0 14.5814,1.38708 15.853517,2.2736357 0 0 0 15.85338,-2.27354 15.853517,2.2736357 0 0 0 -0.0242,-0.0983 23.980109,2.9423521 0 0 0 13.34655,0.49907 23.980109,2.9423521 0 0 0 23.98019,-2.94225 23.980109,2.9423521 0 0 0 -23.98019,-2.94226 23.980109,2.9423521 0 0 0 -9.1814,0.22704 19.050867,4.6810147 0 0 0 0.92164,-1.43053 19.050867,4.6810147 0 0 0 -19.05104,-4.68104 z"
     id="cloud_3"
     inkscape:label="#path4913" />
  <path
     inkscape:connector-curvature="0"
     style="fill:#e6e6e6;fill-opacity:1;stroke-width:0.30786934"
     d="m 220.26308,94.77369 a 23.777159,5.089686 0 0 0 -23.46232,4.30413 44.893932,2.4721332 0 0 0 -33.23689,-0.81427 44.893932,2.4721332 0 0 0 -44.8941,2.47204 44.893932,2.4721332 0 0 0 41.80587,2.46359 28.931646,4.0717491 0 0 0 -1.23516,1.17191 28.931646,4.0717491 0 0 0 28.93149,4.07188 28.931646,4.0717491 0 0 0 11.56464,-0.3447 19.786584,2.4721332 0 0 0 18.19887,1.50818 19.786584,2.4721332 0 0 0 19.78641,-2.47204 19.786584,2.4721332 0 0 0 -0.0302,-0.10686 29.929288,3.1992313 0 0 0 16.65769,0.54265 29.929288,3.1992313 0 0 0 29.92938,-3.19913 29.929288,3.1992313 0 0 0 -29.92938,-3.19912 29.929288,3.1992313 0 0 0 -11.45921,0.24686 23.777159,5.089686 0 0 0 1.15028,-1.55542 23.777159,5.089686 0 0 0 -23.77737,-5.08972 z"
     id="cloud_2"
     inkscape:label="#path4913-1" />
  <path
     inkscape:connector-curvature="0"
     style="fill:#000000;fill-opacity:1;stroke-width:0.14003347"
     d="m 248.82047,139.48864 -4.04368,18.95732 -1.20045,-0.21717 -0.21445,2.56766 0.87953,0.15912 -1.37976,6.4689 -1.54616,-0.23169 -0.24391,2.5661 1.25212,0.18763 -1.18804,5.5712 -1.54926,-0.21769 -0.25684,2.56559 1.26711,0.17777 -1.35289,6.34347 -1.37407,-0.17726 -0.27647,2.56506 1.11052,0.14306 -1.85725,8.70795 c -2.90845,0.64075 -6.83882,1.74617 -11.52229,3.18443 -0.6235,-2.41353 -1.35227,-4.81621 -2.1761,-7.20955 a 3.3611449,5.2174615 0 0 0 0.6935,-1.65182 3.9213358,2.8202494 0 0 0 1.23145,0.14513 3.9213358,2.8202494 0 0 0 3.92173,-2.82059 3.9213358,2.8202494 0 0 0 -0.0605,-0.48927 3.0810496,2.8907556 0 0 0 2.4412,-2.82422 3.0810496,2.8907556 0 0 0 -2.49907,-2.83769 3.5011928,3.5253118 0 0 0 0.25786,-1.32218 3.5011928,3.5253118 0 0 0 -1.09347,-2.55366 2.6609063,2.9612618 0 0 0 0.25373,-1.25377 2.6609063,2.9612618 0 0 0 -2.66134,-2.96104 2.6609063,2.9612618 0 0 0 -0.87384,0.16793 4.6215741,5.5699917 0 0 0 -4.06952,-3.53792 4.2714552,6.2045492 0 0 0 -3.80959,-3.39849 4.2714552,6.2045492 0 0 0 -4.27106,6.20405 4.2714552,6.2045492 0 0 0 0.0486,0.89666 2.9410019,5.42898 0 0 0 -2.56987,5.37839 2.9410019,5.42898 0 0 0 0.0284,0.70748 2.8709781,3.1022743 0 0 0 -2.26911,3.02946 2.8709781,3.1022743 0 0 0 1.48156,2.71382 6.0920748,5.5699917 0 0 0 -0.36122,1.86898 6.0920748,5.5699917 0 0 0 6.09214,5.57017 6.0920748,5.5699917 0 0 0 3.3352,-0.91117 3.3611449,5.2174615 0 0 0 2.3368,1.47508 3.3611449,5.2174615 0 0 0 1.8464,-0.86453 c 0.69037,2.22652 1.25227,4.49613 1.66553,6.81564 -27.77217,8.61272 -79.77716,27.87531 -100.17631,30.30964 57.56451,0.0895 115.12882,0.17905 172.69332,0.26848 v -27.63314 c -1.54297,-0.21295 -3.28123,-0.44761 -4.97281,-0.67742 a 6.5941937,4.5528823 0 0 0 0.0946,-0.7562 l -0.68263,-2.0167 a 6.5941937,4.5528823 0 0 0 -7.69876,-2.36085 l -0.0703,-0.91377 a 1.5624802,4.7184014 0 0 0 -1.92804,-2.351 1.5624802,4.7184014 0 0 0 -0.62735,1.27035 l -0.40826,-1.54764 a 4.7101386,4.1734755 0 0 0 -5.81205,-2.07994 4.7101386,4.1734755 0 0 0 -2.78847,2.39299 7.724627,3.2249583 0 0 0 -3.44164,-0.35918 7.5362214,4.9322893 0 0 0 -3.06441,-3.25337 4.144922,2.8455515 0 0 0 0.14521,-0.73235 4.144922,2.8455515 0 0 0 -4.14496,-2.84547 4.144922,2.8455515 0 0 0 -1.68827,0.25034 5.6521661,5.880806 0 0 0 -5.4715,-4.42368 5.6521661,5.880806 0 0 0 -2.74712,0.7479 l -0.031,-2.8719 0.86558,0.12129 0.25683,-2.56559 -1.15083,-0.16171 -0.061,-5.6619 1.52498,0.22857 0.24391,-2.5661 -1.79679,-0.269 -0.0698,-6.46734 1.17771,0.21354 0.21446,-2.56765 -1.42059,-0.25708 -0.21136,-19.53626 z m 0.0419,10.58886 0.0987,9.12673 -1.96887,-0.35659 z m -2.40554,11.27923 2.53266,0.4587 0.0708,6.53783 -3.96875,-0.59449 z m -1.90324,8.92357 4.5346,0.67948 0.0615,5.68316 -5.78001,-0.81166 z m -1.72238,8.07717 6.3469,0.89096 0.004,0.34674 2.04638,-0.0586 0.002,5.2e-4 -2.04845,0.0581 0.0558,5.18611 a 5.6521661,5.880806 0 0 0 -0.35812,0.8469 l -7.39593,-0.95315 1.31465,-6.16362 z m -1.88774,8.84893 4.38733,0.56494 a 6.9710048,4.7425858 0 0 0 -2.43189,3.5628 7.5362214,3.4146612 0 0 0 -3.01067,0.8215 z"
     id="ground_right"
     inkscape:label="#rect4574" />
  <path
     inkscape:connector-curvature="0"
     style="fill:#000000;fill-opacity:1;stroke-width:0.05486174"
     d="m 114.52892,157.22761 -0.55758,7.5644 -0.47801,-0.0191 0.0537,1.00666 0.35037,0.0145 -0.19017,2.58124 -0.61288,-0.006 0.0424,1.00718 0.49661,0.005 -0.16381,2.22312 -0.61392,-5.3e-4 0.0372,1.00769 0.50229,5.3e-4 -0.18655,2.53111 -0.54363,0.006 0.03,1.00873 0.43925,-0.005 -0.016,0.22014 c -0.71775,0.23167 -1.43086,0.45934 -2.16059,0.70022 a 3.7438197,1.6211282 0 0 0 -1.11931,-0.25063 3.4630333,2.2515669 0 0 0 -2.84117,-2.20039 2.8078652,2.7919428 0 0 0 -2.77347,-2.37918 2.8078652,2.7919428 0 0 0 -2.71819,2.10013 2.059101,1.3509403 0 0 0 -0.8387,-0.11885 2.059101,1.3509403 0 0 0 -2.058792,1.35134 2.059101,1.3509403 0 0 0 0.07183,0.34726 3.7438197,2.3416298 0 0 0 -1.522389,1.54461 3.8374153,1.5310655 0 0 0 -1.709454,0.17053 2.3398873,1.981379 0 0 0 -1.385446,-1.13585 2.3398873,1.981379 0 0 0 -2.887162,0.98754 l -0.203089,0.73432 a 0.77620386,2.2400853 0 0 0 -0.311608,-0.60306 0.77620386,2.2400853 0 0 0 -0.957564,1.11621 l -0.03514,0.43408 a 3.2758425,2.1615043 0 0 0 -3.824571,1.12035 l -0.338997,0.95756 a 3.2758425,2.1615043 0 0 0 2.901114,2.14716 3.2758425,2.1615043 0 0 0 2.58744,-0.55656 2.6206738,2.7018805 0 0 0 0.656288,0.47026 c -8.519409,2.45196 -17.38118,4.3223 -26.191165,4.29431 -49.380038,10.73641 -43.339292,27.89256 -65.00896382,41.8388 L 256.76572,229.86762 c -28.24324,-11.41276 -56.48647,-22.82546 -84.72971,-34.23822 -8.33483,-5.71108 -11.64617,-13.35027 -21.15892,-18.6092 0.80677,-1.23133 1.72789,-2.37877 2.73989,-3.46025 a 1.6962678,2.4384836 31.073411 0 0 0.72347,0.66611 1.6962678,2.4384836 31.073411 0 0 1.42058,-0.23823 3.150367,2.5405422 6.2251334 0 0 1.43402,0.92966 3.150367,2.5405422 6.2251334 0 0 4.04213,-1.34772 3.150367,2.5405422 6.2251334 0 0 0.19224,-0.84595 1.3706382,1.5326924 71.274766 0 0 1.25005,-0.89969 1.3706382,1.5326924 71.274766 0 0 -0.50281,-1.64744 1.4881404,2.5306808 28.394795 0 0 0.15245,-0.293 1.4881404,2.5306808 28.394795 0 0 -0.18604,-2.68563 2.1516847,2.9051943 32.937523 0 0 0.19947,-0.36949 2.1516847,2.9051943 32.937523 0 0 -0.84697,-3.31142 h -5.3e-4 a 2.1516847,2.9051943 32.937523 0 0 -2.50993,0.80667 2.2931112,2.6478119 47.028031 0 0 -2.66392,0.8232 1.2896238,1.4411563 63.693847 0 0 -0.38964,-0.21394 1.2896238,1.4411563 63.693847 0 0 -1.86965,0.81132 1.2896238,1.4411563 63.693847 0 0 -0.12351,0.56948 1.5899458,1.8310449 86.041639 0 0 -1.03094,0.89607 1.5899458,1.8310449 86.041639 0 0 -0.13488,0.59893 1.596539,1.3158256 4.2818138 0 0 -1.7663,0.78548 1.596539,1.3158256 4.2818138 0 0 0.62632,1.58853 2.0117527,1.296626 14.136937 0 0 -0.12557,0.19637 2.0117527,1.296626 14.136937 0 0 1.34307,1.82986 2.0117527,1.296626 14.136937 0 0 0.62425,0.14056 1.6962678,2.4384836 31.073411 0 0 0.0103,0.80874 c -1.14212,1.14739 -2.20338,2.33105 -3.18171,3.55121 -1.40716,-0.74408 -2.94831,-1.43682 -4.65605,-2.06551 -0.34969,-1.40443 -0.53171,-2.8227 -0.58498,-4.25142 a 1.9870236,1.3193061 73.056964 0 0 0.7798,0.0264 1.9870236,1.3193061 73.056964 0 0 0.65887,-0.88728 2.1027442,2.4123232 56.06553 0 0 1.3255,-0.18501 2.1027442,2.4123232 56.06553 0 0 1.49862,-2.93108 2.1027442,2.4123232 56.06553 0 0 -0.36949,-0.61444 1.1127872,1.1964653 5.6212229 0 0 0.19069,-1.1994 1.1127872,1.1964653 5.6212229 0 0 -1.20923,-0.73743 2.0663854,1.1550596 71.929867 0 0 -0.0796,-0.25735 2.0663854,1.1550596 71.929867 0 0 -1.61799,-1.53324 2.3638623,1.6759693 73.811027 0 0 -0.0966,-0.32866 2.3638623,1.6759693 73.811027 0 0 -1.84692,-1.66139 2.3638623,1.6759693 73.811027 0 0 -0.49299,0.094 2.3638623,1.6759693 73.811027 0 0 -0.94775,1.80248 2.1281979,1.8081507 79.325082 0 0 -1.02423,1.89239 1.1369881,1.035983 88.235431 0 0 -0.33848,0.0739 1.1369881,1.035983 88.235431 0 0 -0.58704,1.46916 1.1369881,1.035983 88.235431 0 0 0.25218,0.41031 1.3150861,1.4030123 36.419149 0 0 -0.0713,1.08314 1.3150861,1.4030123 36.419149 0 0 0.26251,0.43408 1.089676,1.2218417 53.321535 0 0 -0.54415,1.40043 1.089676,1.2218417 53.321535 0 0 1.2454,0.63717 1.0690914,1.5463539 63.971918 0 0 0.0403,0.18448 1.0690914,1.5463539 63.971918 0 0 1.7818,0.40877 1.0690914,1.5463539 63.971918 0 0 0.42789,-0.24082 1.9870236,1.3193061 73.056964 0 0 0.46198,0.48525 c 0.01,1.42637 0.0973,2.8283 0.26924,4.20387 -1.95904,-0.68731 -4.13086,-1.29263 -6.56705,-1.79679 -0.67695,-0.1699 -1.37684,-0.29658 -2.09496,-0.38964 -0.0321,-0.10579 -0.062,-0.21152 -0.0956,-0.31729 a 1.2845955,0.85235327 89.046153 0 0 0.18655,-0.39171 0.9987005,0.69139442 7.7964595 0 0 0.3111,0.062 0.9987005,0.69139442 7.7964595 0 0 1.01285,-0.60978 0.9987005,0.69139442 7.7964595 0 0 -0.0119,-0.12144 0.78886692,0.7049299 18.257849 0 0 0.63769,-0.64234 0.78886692,0.7049299 18.257849 0 0 -0.61392,-0.75034 0.905639,0.85093822 35.494843 0 0 0.0749,-0.31987 0.905639,0.85093822 35.494843 0 0 -0.25994,-0.65113 0.73459712,0.66972531 74.42374 0 0 0.0729,-0.3023 0.73459712,0.66972531 74.42374 0 0 -0.65423,-0.78497 0.73459712,0.66972531 74.42374 0 0 -0.22272,0.0227 1.375513,1.1684748 83.034328 0 0 -1.00666,-0.95653 1.5281729,1.0828122 88.323088 0 0 -0.94154,-0.91674 h -0.001 a 1.5281729,1.0828122 88.323088 0 0 -1.12345,1.43402 1.5281729,1.0828122 88.323088 0 0 0.006,0.22169 0.74620661,1.3359617 0.12732401 0 0 -0.68782,1.26711 0.74620661,1.3359617 0.12732401 0 0 0.002,0.17466 0.77280245,0.71958337 67.158713 0 0 -0.59583,0.69608 0.77280245,0.71958337 67.158713 0 0 0.35709,0.69867 1.5575967,1.3602047 15.534002 0 0 -0.10439,0.45165 1.5575967,1.3602047 15.534002 0 0 1.50585,1.49913 1.5575967,1.3602047 15.534002 0 0 0.85111,-0.15244 1.2845955,0.85235327 89.046153 0 0 0.24857,0.2775 c -4.9652,-0.39138 -10.82557,0.82662 -17.29869,2.72697 l -0.33331,-2.23553 0.34261,5.3e-4 -0.0377,-1.0082 -0.45527,-5.3e-4 -0.32711,-2.19056 0.60513,0.006 -0.0424,-1.00769 -0.71313,-0.007 -0.37311,-2.50166 0.46974,0.0191 -0.0543,-1.00666 -0.56585,-0.0227 -1.12707,-7.55923 z m 0.58292,4.10053 0.52658,3.53156 -0.78445,-0.0315 z m -0.33125,4.50153 1.00872,0.0408 0.37672,2.52905 -1.57406,-0.0155 z m -0.26252,3.5605 1.79834,0.0181 0.32815,2.19883 -2.28978,-0.002 z m 21.6054,2.69597 c 0.0114,0.0401 0.0205,0.0807 0.0315,0.12092 -0.0585,-0.007 -0.11744,-0.0132 -0.17621,-0.0196 a 1.2845955,0.85235327 89.046153 0 0 0.14469,-0.10129 z m -21.84311,0.52658 2.51406,0.003 0.0202,0.13385 0.35088,2.35231 -3.07113,0.0326 0.18139,-2.45928 z"
     id="ground_center"
     inkscape:label="#rect4574-37" />
  <path
     inkscape:connector-curvature="0"
     style="fill:#e6e6e6;fill-opacity:1;stroke-width:0.4533802"
     d="m 140.53009,29.909429 a 29.956126,8.761077 0 0 0 -28.98182,6.617891 52.306977,9.5516488 0 0 0 -4.79358,-0.0439 52.306977,9.5516488 0 0 0 -7.35318,0.10499 56.560509,4.2553802 0 0 0 -30.30499,-0.67182 56.560509,4.2553802 0 0 0 -56.56125,4.25538 56.560509,4.2553802 0 0 0 42.82819,4.11885 52.306977,9.5516488 0 0 0 -0.91574,1.74447 52.306977,9.5516488 0 0 0 52.30697,9.55135 52.306977,9.5516488 0 0 0 19.0585,-0.65733 24.928522,4.2553802 0 0 0 11.78454,0.512 24.928522,4.2553802 0 0 0 24.92817,-4.25487 24.928522,4.2553802 0 0 0 -0.0384,-0.18412 37.707007,5.5069629 0 0 0 20.98656,0.93404 37.707007,5.5069629 0 0 0 37.7071,-5.50646 37.707007,5.5069629 0 0 0 -37.7071,-5.50698 37.707007,5.5069629 0 0 0 -14.43704,0.42514 29.956126,8.761077 0 0 0 1.44946,-2.67747 29.956126,8.761077 0 0 0 -29.9564,-8.761095 z"
     id="cloud_1"
     inkscape:label="#path4913-1-8" />
  <path
     inkscape:connector-curvature="0"
     style="fill:#000000;fill-opacity:1;stroke-width:0.03431391"
     d="m 11.581722,134.60212 -2.4458456,4.05918 -0.2614827,-0.14676 -0.2537314,0.57619 0.1917197,0.10801 -0.8350911,1.38492 -0.3400312,-0.17776 -0.2609659,0.57361 0.2754355,0.14417 -0.7188192,1.19321 -0.3420981,-0.17518 -0.2635498,0.57257 0.2800863,0.14315 -0.8185547,1.35806 -0.304891,-0.15142 -0.2682005,0.57103 0.2464965,0.12247 -0.602547,0.99942 c -1.5212814,0.40856 -3.0648906,0.92543 -4.677234,1.56787 0.0888054,27.37278 0.177825,54.74571 0.26665038,82.1185 C 66.348736,229.22809 131.44901,229.28035 197.34868,229.06508 158.13675,209.73919 128.98074,185.65271 95.896471,179.16219 80.373677,176.11691 60.203794,163.45743 43.520341,154.34458 c -0.0054,-0.7021 0.04894,-1.39702 0.152445,-2.08618 a 1.3780559,0.99178858 78.514073 0 0 0.578776,0.13074 1.3780559,0.99178858 78.514073 0 0 0.607716,-0.50126 1.4706157,1.7982915 81.690605 0 0 1.013891,0.0677 1.4706157,1.7982915 81.690605 0 0 1.499651,-1.7539 1.4706157,1.7982915 81.690605 0 0 -0.196371,-0.46664 0.84838727,0.8181923 0.70602628 0 0 0.298172,-0.77928 0.84838727,0.8181923 0.70602628 0 0 -0.807702,-0.67179 1.4338578,0.86785454 78.899311 0 0 -0.02585,-0.185 1.4338578,0.86785454 78.899311 0 0 -1.009759,-1.26608 1.6388255,1.2603549 78.22437 0 0 -0.02997,-0.23512 1.6388255,1.2603549 78.22437 0 0 -1.544608,-1.39372 1.6388255,1.2603549 78.22437 0 0 -0.941544,1.07487 1.4718421,1.3630844 74.647701 0 0 -1.01079,1.12397 0.78921855,0.77812359 26.213449 0 0 -0.262517,10e-4 0.78921855,0.77812359 26.213449 0 0 -0.628904,0.9033 0.78921855,0.77812359 26.213449 0 0 0.134876,0.31212 0.93057579,1.0337162 83.448441 0 0 -0.19327,0.71831 0.93057579,1.0337162 83.448441 0 0 0.139528,0.33021 0.76320575,0.90951107 81.971358 0 0 -0.588078,0.863 0.76320575,0.90951107 81.971358 0 0 0.847492,0.60926 0.74470537,1.1573816 80.671366 0 0 0.0067,0.13023 0.74470537,1.1573816 80.671366 0 0 1.277959,0.53329 0.74470537,1.1573816 80.671366 0 0 0.350885,-0.0997 1.3780559,0.99178858 78.514073 0 0 0.282152,0.39377 c -0.127879,0.69089 -0.222917,1.37893 -0.286288,2.06448 -3.214422,-1.75143 -6.300906,-3.37185 -9.191685,-4.7563 0.350213,-0.79745 0.655026,-1.62342 0.915188,-2.47789 a 0.99316412,1.3761473 38.800476 0 0 0.431499,-0.21807 1.1588915,0.74373514 37.023202 0 0 0.265099,0.25115 1.1588915,0.74373514 37.023202 0 0 1.379244,0.11989 1.1588915,0.74373514 37.023202 0 0 0.06511,-0.11214 0.91065023,0.76225103 35.976461 0 0 1.032494,-0.14728 0.91065023,0.76225103 35.976461 0 0 -0.12454,-1.03818 1.0349477,0.92946854 34.806302 0 0 0.275953,-0.22789 1.0349477,0.92946854 34.806302 0 0 0.159163,-0.72709 0.78878395,0.77855232 8.5585645 0 0 0.263548,-0.21445 0.78878395,0.77855232 8.5585645 0 0 -0.14211,-1.09296 0.78878395,0.77855232 8.5585645 0 0 -0.232542,-0.12247 1.3651572,1.4696074 42.136614 0 0 -0.378272,-1.46555 1.2621162,1.6365384 39.043361 0 0 -0.340548,-1.39009 1.2621162,1.6365384 39.043361 0 0 -0.604097,-0.21033 1.2621162,1.6365384 39.043361 0 0 -1.407668,0.73019 1.2621162,1.6365384 39.043361 0 0 -0.134358,0.19482 0.86904575,1.4318925 38.479108 0 0 -1.478463,0.65422 0.86904575,1.4318925 38.479108 0 0 -0.108002,0.15193 0.84911892,0.8174873 29.262766 0 0 -1.025777,0.22066 0.84911892,0.8174873 29.262766 0 0 -0.09405,0.82941 1.8005643,1.4687593 36.20111 0 0 -0.389126,0.32298 1.8005643,1.4687593 36.20111 0 0 0.522449,2.25102 1.8005643,1.4687593 36.20111 0 0 0.930693,0.41031 0.99316412,1.3761473 38.800476 0 0 0.307991,0.72657 0.99316412,1.3761473 38.800476 0 0 0.573609,0.15245 c -0.266996,0.78071 -0.603316,1.53495 -1.016992,2.25981 -6.681282,-3.17298 -12.319569,-5.08019 -16.172139,-4.52324 -3.156448,-0.23478 -5.983348,-0.17369 -8.7586385,0.23771 l 0.289388,-0.87178 0.191203,0.0977 0.2635496,-0.57258 -0.2542479,-0.1297 0.4361489,-1.31465 0.335897,0.1757 0.2609659,-0.57413 -0.3958415,-0.2067 0.4981605,-1.5012 0.256316,0.14417 0.254247,-0.57671 -0.309025,-0.17363 1.505335,-4.53512 z m -0.831991,2.45153 -0.703316,2.11977 -0.4289144,-0.24082 z m -1.4557248,2.41587 0.5508707,0.31006 L 9.3415486,141.2968 8.4677,140.83998 Z m -1.1513508,1.91048 0.9978718,0.52193 -0.4382161,1.3193 -1.2764079,-0.65267 z m -1.0423136,1.72961 1.4014646,0.71623 -0.026872,0.0806 -0.3803385,1.14515 c -0.1561698,0.0261 -0.3126836,0.0491 -0.4687052,0.0775 L 6.2848875,144.4625 7.080188,143.14268 Z m -1.1420493,1.89497 0.6547406,0.32557 c -0.3289462,0.0704 -0.6581188,0.14655 -0.9880534,0.22737 z"
     id="ground_left"
     inkscape:label="#rect4574-37-8" />
  <path
     inkscape:connector-curvature="0"
     style="fill:#000000;stroke:#000000;stroke-width:0.06899323px;stroke-linecap:butt;stroke-linejoin:miter;stroke-opacity:1"
     d="m 106.06381,174.61269 a 4.1057293,3.1752585 9.6993217 0 1 5.76591,0.61309 4.1057293,3.1752585 9.6993217 0 1 0.36129,0.39082 3.3897946,2.3169866 28.586192 0 1 4.19586,1.046 3.3897946,2.3169866 28.586192 0 1 0.29214,0.30395 1.7470552,2.5077644 73.048626 0 1 2.94555,0.21597 1.7470552,2.5077644 73.048626 0 1 0.14876,1.78893 3.1880716,5.2357034 66.533426 0 1 1.08138,0.60484 3.1880716,5.2357034 66.533426 0 1 -1.85621,5.05709 3.1880716,5.2357034 66.533426 0 1 -2.76502,1.1391 3.3714904,2.5586323 16.484989 0 1 -1.00409,1.66776 3.3714904,2.5586323 16.484989 0 1 -1.68979,0.48262 c 1.50302,3.73907 3.99879,7.11206 8.12809,9.88262 -0.7069,0.48552 -1.41352,0.97121 -2.12035,1.45679 -3.11305,-3.31798 -5.26501,-7.16264 -6.73466,-11.38115 a 3.3714904,2.5586323 16.484989 0 1 -1.22068,-0.36457 1.6311346,3.335148 62.087257 0 1 -0.80832,0.61864 1.6311346,3.335148 62.087257 0 1 -4.02354,0.62007 1.6311346,3.335148 62.087257 0 1 -0.17348,-0.22872 1.6515994,2.6527033 67.280554 0 1 -2.97655,-0.0536 1.6515994,2.6527033 67.280554 0 1 0.51729,-2.30169 2.001986,3.0327447 69.753359 0 1 -0.76682,-0.42677 2.001986,3.0327447 69.753359 0 1 -0.35286,-1.54718 1.6602455,2.3346265 74.735615 0 1 -0.73332,-0.40046 1.6602455,2.3346265 74.735615 0 1 0.57752,-2.42621 1.6602455,2.3346265 74.735615 0 1 0.69337,-0.32775 3.0731513,4.1204426 80.441757 0 1 1.32055,-3.30276 4.1057293,3.1752585 9.6993217 0 1 1.19801,-3.12747 z"
     id="path5057-9" />
  <path
     inkscape:connector-curvature="0"
     style="font-style:normal;font-variant:normal;font-weight:normal;font-stretch:normal;font-size:32.51426697px;line-height:1.25;font-family:'Bauhaus 93';-inkscape-font-specification:'Bauhaus 93, ';letter-spacing:0px;word-spacing:0px;fill:#000000;fill-opacity:1;stroke:none;stroke-width:0.81285655"
     d="m 148.41626,42.232564 a 2.570444,6.4238197 28.083502 0 0 -4.86172,4.571814 2.570444,6.4238197 28.083502 0 0 -1.50688,4.769734 1.7886108,6.0212141 29.601235 0 0 0.21704,1.604552 1.7886108,6.0212141 29.601235 0 0 0.0853,0.06356 2.570444,6.4238197 28.083502 0 0 0.44029,0.446484 2.570444,6.4238197 28.083502 0 0 0.53847,0.122473 c 1.34566,0.299778 2.41754,0.09872 5.148,1.578716 l -4.43952,8.30802 a 7.3783824,3.6775538 7.6671007 0 0 -0.36328,-0.05581 7.3783824,3.6775538 7.6671007 0 0 -4.71703,0.198953 1.7151112,2.7175827 7.550123 0 0 -0.0181,-0.06098 2.874827,2.9882184 0 0 0 1.29502,-2.494936 2.874827,2.9882184 0 0 0 -2.36317,-2.93884 c 0.005,-0.271204 -0.006,-0.602213 0.35915,-1.16427 -0.32176,0.223647 -0.86916,0.516638 -0.77514,0.983919 -0.16503,-0.501618 -0.74419,-1.0032 -1.30845,-1.504818 0.37521,0.544121 0.69299,1.085186 0.73639,1.610754 -0.2294,-0.437708 -0.81852,-0.678362 -1.52394,-0.855244 0.5463,0.263911 1.14218,0.510762 1.01596,0.974101 l 0.12196,0.04599 a 2.874827,2.9882184 0 0 0 -1.98025,2.427759 c -0.5412,0.183975 -1.15706,0.331247 -1.8004,0.331247 -1.96709,0 -3.56154,0.331978 -3.56154,0.74104 0,0.409059 1.60587,0.528032 3.56154,0.740521 0.89795,0.09758 1.58687,0.102465 2.12028,0.03411 a 2.874827,2.9882184 0 0 0 1.11569,1.178223 1.7151112,2.7175827 7.550123 0 0 -0.293,1.072801 1.7151112,2.7175827 7.550123 0 0 0.23875,1.95802 7.3783824,3.6775538 7.6671007 0 0 6.80527,4.012676 7.3783824,3.6775538 7.6671007 0 0 1.84329,0.126609 0.86349431,1.9865713 0 0 0 -0.0863,0.860411 0.86349431,1.9865713 0 0 0 0.0961,0.910021 c -0.61807,0.02837 -1.37953,0.101286 -2.18281,0.101286 -1.86784,0 -3.20239,-0.413034 -3.20239,0.325045 0,1.388222 1.51439,1.336869 3.38222,1.336869 1.78942,0 3.25049,-0.549802 3.37034,-1.244883 a 0.86349431,1.9865713 0 0 0 0.26355,-1.428338 0.86349431,1.9865713 0 0 0 -0.10387,-0.939995 7.3783824,3.6775538 7.6671007 0 0 4.33669,-2.366264 c 0.27054,-0.343075 0.54096,-1.188178 0.67541,-2.19728 0.17979,-1.34946 -0.11318,-2.07481 -0.11318,-2.07481 0,0 -0.23555,0.821529 -1.05161,1.908926 -0.0371,0.0495 -0.0682,0.100201 -0.0992,0.150898 a 7.3783824,3.6775538 7.6671007 0 0 -2.80603,-1.876888 l 4.08347,-7.641394 c 2.1118,1.318122 2.57175,2.166053 3.58635,3.171899 a 2.5699225,6.5690474 28.08535 0 0 0.60409,0.835607 2.5699225,6.5690474 28.08535 0 0 5.35885,-4.574913 2.5699225,6.5690474 28.08535 0 0 0.83303,-7.012493 2.5699225,6.5690474 28.08535 0 0 -1.4702,0.133842 c -1.32675,0.0076 -2.50989,-0.199514 -6.17327,-2.122353 -1.65202,-0.650036 -3.37321,-2.629508 -4.3217,-3.847308 a 2.570444,6.4238197 28.083502 0 0 -0.68058,-1.110528 2.570444,6.4238197 28.083502 0 0 -0.42891,-0.124539 z m 0.047,0.683162 a 2.0537073,5.86498 28.092973 0 1 -1.03818,6.085932 2.0537073,5.86498 28.092973 0 1 -4.40594,4.259689 1.7886108,6.0212141 29.601235 0 0 3.66025,-3.979085 1.7886108,6.0212141 29.601235 0 0 1.78387,-6.366536 z m -1.28313,0.107487 a 1.7886108,6.0212141 29.601235 0 0 -3.1719,3.737239 1.7886108,6.0212141 29.601235 0 0 -0.49351,0.876432 2.0537073,5.86498 28.092973 0 1 0.29404,-0.582908 2.0537073,5.86498 28.092973 0 1 3.37137,-4.030763 z m -11.60807,16.373678 a 0.39670259,0.68173909 13.333303 0 1 0.0677,0.0062 0.39670259,0.68173909 13.333303 0 1 0.22789,0.75551 0.39670259,0.68173909 13.333303 0 1 -0.54363,0.571027 0.39670259,0.68173909 13.333303 0 1 -0.22789,-0.756026 0.39670259,0.68173909 13.333303 0 1 0.47594,-0.57671 z m 7.10292,4.800224 c 0.40794,0.0104 0.87209,0.06557 1.3963,0.174665 2.79572,0.581821 4.06658,2.967559 3.84266,4.051951 0,0 -1.05676,-2.11723 -3.85248,-2.699062 -2.79574,-0.581819 -3.89485,0.122991 -3.89485,0.122991 0.0236,-0.899488 0.74064,-1.695593 2.50837,-1.650545 z m -20.34811,4.770769 v 12.996105 c 0,2.110341 -0.76038,3.165181 -2.28152,3.165181 -0.6338,0 -1.17771,-0.217363 -1.63194,-0.652158 -0.45422,-0.445397 -0.68161,-0.975526 -0.68161,-1.590601 0,-0.636283 0.21647,-1.177239 0.64957,-1.622639 0.44367,-0.456001 0.97224,-0.683678 1.58492,-0.683678 0.48592,0 0.97135,0.190804 1.45728,0.572574 v -6.553604 c -0.70776,-0.06363 -1.23581,-0.0956 -1.5844,-0.0956 -2.1972,0 -4.0984,0.816334 -5.70405,2.449462 -1.60565,1.633127 -2.40864,3.568769 -2.40864,5.806366 0,2.311828 0.80793,4.263196 2.42414,5.853906 1.61621,1.590707 3.60265,2.385899 5.9583,2.385899 1.1831,0 2.33432,-0.259649 3.45405,-0.77928 1.13029,-0.519631 2.05958,-1.219939 2.78846,-2.100131 1.26761,-1.527079 1.90169,-3.504488 1.90169,-5.932971 V 68.967884 Z m 44.77866,0 v 21.712885 h 5.92625 V 68.967884 Z M 30.678231,74.487441 c -2.260582,0 -4.19894,0.795192 -5.815149,2.385901 -1.61621,1.59071 -2.424142,3.505206 -2.424142,5.742803 0,2.354249 0.797537,4.342487 2.392619,5.96501 1.605645,1.622523 3.570252,2.43396 5.894215,2.43396 2.197198,0 4.061753,-0.737177 5.593455,-2.211234 1.531702,-1.474057 2.38225,-3.356581 2.551266,-5.6472 l -5.878711,0.222726 c -0.422539,1.177123 -1.135361,1.765781 -2.138886,1.765781 -0.686625,0 -1.262234,-0.23309 -1.727028,-0.699698 -0.454229,-0.466606 -0.681612,-1.044956 -0.681612,-1.734259 0,-0.678704 0.216472,-1.240806 0.649574,-1.686203 0.433101,-0.4454 0.987919,-0.66766 1.66398,-0.66766 0.79226,0 1.447128,0.339323 1.964738,1.018026 l 6.005319,-0.222726 c -0.369721,-1.940666 -1.309926,-3.536981 -2.820501,-4.788339 -1.510575,-1.251357 -3.253771,-1.876888 -5.229137,-1.876888 z m 17.667655,0 c -2.081001,0 -3.744942,0.684062 -4.991426,2.052071 -1.246489,1.357405 -1.869654,3.181398 -1.869654,5.472018 v 8.669239 h 5.926254 v -7.524088 c 0,-1.654337 0.538448,-2.481504 1.615921,-2.481504 0.33803,0 0.713021,0.116547 1.124996,0.349851 v -6.362404 c -0.739442,-0.116652 -1.3413,-0.175183 -1.806091,-0.175183 z m 107.953104,0 c -2.26059,0 -4.19894,0.795192 -5.81515,2.385901 -1.61621,1.59071 -2.42415,3.505206 -2.42415,5.742803 0,2.354249 0.79754,4.342487 2.39262,5.96501 1.60565,1.622523 3.57026,2.43396 5.89422,2.43396 2.1972,0 4.06175,-0.737177 5.59345,-2.211234 1.53171,-1.474057 2.38225,-3.356581 2.55127,-5.6472 l -5.87871,0.222726 c -0.42254,1.177123 -1.13536,1.765781 -2.13889,1.765781 -0.68662,0 -1.26275,-0.23309 -1.72754,-0.699698 -0.45423,-0.466606 -0.6811,-1.044956 -0.6811,-1.734259 0,-0.678704 0.21647,-1.240806 0.64958,-1.686203 0.4331,-0.4454 0.98792,-0.66766 1.66398,-0.66766 0.79226,0 1.44712,0.339323 1.96473,1.018026 l 6.00532,-0.222726 c -0.36972,-1.940666 -1.30992,-3.536981 -2.8205,-4.788339 -1.51057,-1.251357 -3.25377,-1.876888 -5.22913,-1.876888 z m 43.81231,0 c -2.32396,0 -4.28363,0.779465 -5.87871,2.338358 -1.59509,1.558896 -2.39262,3.472876 -2.39262,5.742287 0,2.099736 0.66032,3.876027 1.98075,5.328872 1.331,1.452848 2.95232,2.179196 4.86431,2.179196 0.78169,0 1.60054,-0.158832 2.45618,-0.476973 v -5.455999 c -0.36972,0.190886 -0.75563,0.28629 -1.15704,0.28629 -0.60212,0 -1.10886,-0.201636 -1.52083,-0.604615 -0.40142,-0.402979 -0.60255,-0.90655 -0.60255,-1.51102 0,-0.572653 0.21153,-1.076224 0.63407,-1.511019 0.4331,-0.445397 0.93491,-0.668176 1.50533,-0.668176 1.34156,0 2.01228,0.832064 2.01228,2.497005 v 5.965528 c 0,1.314985 -0.29027,2.322127 -0.87126,3.022037 -0.58099,0.710517 -1.40529,1.066085 -2.4722,1.066085 -0.79226,0 -1.57395,-0.212465 -2.34508,-0.636653 V 97.4571 c 1.19367,0.392374 2.18143,0.588595 2.96313,0.588595 2.56692,0 4.64794,-0.88518 6.24303,-2.656171 1.60564,-1.760384 2.40864,-4.056488 2.40864,-6.887951 v -5.217252 c 0,-2.640576 -0.53897,-4.655889 -1.61644,-6.04511 -0.64437,-0.837771 -1.53156,-1.505588 -2.66186,-2.00401 -1.13029,-0.498422 -2.31321,-0.74776 -3.54913,-0.74776 z m 18.15858,0 c -2.081,0 -3.74494,0.684062 -4.99143,2.052071 -1.24649,1.357405 -1.86965,3.181398 -1.86965,5.472018 v 8.669239 h 5.92574 v -7.524088 c 0,-1.654337 0.53896,-2.481504 1.61643,-2.481504 0.33804,0 0.71302,0.116547 1.125,0.349851 v -6.362404 c -0.73944,-0.116652 -1.3413,-0.175183 -1.80609,-0.175183 z m 11.02827,0 c -2.38735,0 -4.39457,0.795192 -6.02134,2.385901 -1.62677,1.580105 -2.44016,3.531474 -2.44016,5.853907 0,2.280015 0.81339,4.231383 2.44016,5.853906 1.62677,1.611918 3.58644,2.41794 5.87871,2.41794 2.29227,0 4.24648,-0.806022 5.86269,-2.41794 1.62677,-1.611919 2.44016,-3.563284 2.44016,-5.853906 0,-2.258806 -0.80299,-4.193929 -2.40864,-5.805848 -1.59508,-1.622523 -3.51213,-2.43396 -5.75158,-2.43396 z m -170.050606,0.01603 c -2.292267,0 -4.24154,0.800608 -5.847188,2.401922 -1.595078,1.601311 -2.392616,3.552679 -2.392616,5.853906 0,2.364854 0.792596,4.331949 2.377114,5.901446 1.584518,1.569501 3.564977,2.354379 5.941756,2.354379 0.401413,0 0.845267,-0.0428 1.331185,-0.12764 V 84.73179 c -0.443664,0.275725 -0.924679,0.413412 -1.442289,0.413412 -0.633807,0 -1.156404,-0.211948 -1.568378,-0.636135 -0.411975,-0.424191 -0.618051,-0.965148 -0.618051,-1.622642 0,-0.625679 0.226867,-1.166636 0.681095,-1.62264 0.454229,-0.456001 0.993193,-0.683678 1.616438,-0.683678 0.686625,0 1.230532,0.24882 1.631942,0.747242 0.411975,0.498422 0.618051,1.166754 0.618051,2.004528 v 7.348905 h 5.926254 v -7.778337 c 0,-2.598158 -0.739588,-4.644927 -2.218471,-6.140193 -1.468321,-1.505871 -3.480482,-2.258777 -6.036842,-2.258777 z m 206.034976,0 c -1.18312,0 -2.33979,0.259649 -3.47008,0.77928 -1.11973,0.519631 -2.04408,1.219422 -2.77296,2.099614 -1.26761,1.52708 -1.90169,3.505007 -1.90169,5.933488 v 13.234852 h 5.92625 V 83.538583 c 0,-2.110341 0.76037,-3.1657 2.28153,-3.1657 0.63381,0 1.17771,0.222779 1.63192,0.668179 0.45424,0.434789 0.68162,0.964919 0.68162,1.590598 0,0.625679 -0.22193,1.166638 -0.66558,1.622642 -0.4331,0.456001 -0.95571,0.684194 -1.5684,0.684194 -0.48591,0 -0.97187,-0.196218 -1.45778,-0.588595 v 6.553608 c 0.69718,0.07423 1.22524,0.111619 1.58441,0.111619 2.19718,0 4.09839,-0.816853 5.70404,-2.449978 1.6056,-1.63313 2.40864,-3.573666 2.40864,-5.821868 0,-2.311831 -0.80793,-4.263196 -2.42414,-5.853906 -1.61623,-1.590709 -3.60214,-2.385901 -5.95778,-2.385901 z M 69.451574,74.821284 v 6.203757 h 5.00693 l -4.816761,9.655741 h 15.227493 v -6.235279 h -5.577954 l 4.848802,-9.624219 z m 17.397904,0 v 9.97407 c 0,1.696754 0.475562,3.096334 1.426268,4.199225 0.950712,1.092288 2.1604,1.63866 3.628721,1.63866 0.992965,0 2.006973,-0.30735 3.042192,-0.922425 -0.570428,2.173971 -1.817274,3.260784 -3.739824,3.260784 -0.602118,0 -1.304542,-0.169662 -2.107364,-0.509014 v 5.169713 c 1.088035,0.424187 2.181302,0.636135 3.279902,0.636135 2.50354,0 4.637579,-0.964854 6.401676,-2.894912 1.478881,-1.622523 2.218471,-3.753866 2.218471,-6.394442 V 74.821284 h -5.926255 v 8.383469 c 0,1.039262 -0.374991,1.55856 -1.124995,1.55856 -0.781696,0 -1.172538,-0.471596 -1.172538,-1.415418 v -8.526611 z m 89.097922,0 -2.69389,5.504059 3.70778,10.355439 h 6.55981 l -4.30982,-10.085173 2.89957,-5.774325 z m -44.58849,0.222727 v 8.367447 c 0,2.280016 0.5335,4.061722 1.60042,5.344893 1.37324,1.643732 3.18479,2.465483 5.4348,2.465483 1.97537,0 3.64425,-0.705205 5.00693,-2.115632 1.36269,-1.421035 2.04432,-3.160453 2.04432,-5.217771 v -8.84442 h -5.92625 v 8.956042 c 0,0.901401 -0.37005,1.351854 -1.10949,1.351854 -0.75001,0 -1.125,-0.450453 -1.125,-1.351854 v -8.956042 z m 108.57115,0 v 8.367447 c 0,2.280016 0.5335,4.061722 1.60041,5.344893 1.37325,1.643732 3.1848,2.465483 5.43481,2.465483 1.97537,0 3.64425,-0.705205 5.00693,-2.115632 1.36269,-1.421035 2.04432,-3.160453 2.04432,-5.217771 v -8.84442 h -5.92625 v 8.956042 c 0,0.901401 -0.36953,1.351854 -1.10898,1.351854 -0.75,0 -1.12499,-0.450453 -1.12499,-1.351854 v -8.956042 z m -10.79056,5.31337 c 0.64437,0 1.18828,0.23309 1.63194,0.699699 0.44367,0.456004 0.66559,1.018106 0.66559,1.686202 0,0.657493 -0.22738,1.219595 -0.68161,1.686203 -0.44366,0.466606 -0.98211,0.699699 -1.61592,0.699699 -0.62325,0 -1.16221,-0.233093 -1.61644,-0.699699 -0.44367,-0.466608 -0.66507,-1.02871 -0.66507,-1.686203 0,-0.668096 0.2214,-1.230198 0.66507,-1.686202 0.44366,-0.466609 0.98263,-0.699699 1.61644,-0.699699 z"
     id="logotype_big"
     inkscape:label="#text4756" />
</svg>
