

<svg xmlns:svg="http://www.w3.org/2000/svg viewBox="0 0 210 297"
>
 
<path
       style="fill:#e6e6e6;fill-opacity:1;stroke-width:0.45389631"
       d="m 129.5784,18.832558 a 30.04875,8.7539684 0 0 0 -29.07144,6.61251 52.468711,9.5438987 0 0 0 -4.808398,-0.0439 52.468711,9.5438987 0 0 0 -7.375922,0.10491 56.735395,4.2519275 0 0 0 -30.398686,-0.67128 56.735395,4.2519275 0 0 0 -56.736143,4.25194 56.735395,4.2519275 0 0 0 42.960623,4.11551 52.468711,9.5438987 0 0 0 -0.918578,1.74304 52.468711,9.5438987 0 0 0 52.468706,9.54361 52.468711,9.5438987 0 0 0 19.117428,-0.65681 25.005601,4.2519275 0 0 0 11.82098,0.5116 25.005601,4.2519275 0 0 0 25.00525,-4.25142 25.005601,4.2519275 0 0 0 -0.0385,-0.18397 37.823598,5.5024946 0 0 0 21.05145,0.93328 37.823598,5.5024946 0 0 0 37.82368,-5.50199 37.823598,5.5024946 0 0 0 -37.82368,-5.50251 37.823598,5.5024946 0 0 0 -14.48168,0.42478 30.04875,8.7539684 0 0 0 1.45394,-2.67529 30.04875,8.7539684 0 0 0 -30.04902,-8.75399 z"
/>
</svg>
