<?xml version="1.0" encoding="UTF-8" standalone="no"?>
<svg
   xmlns:dc="http://purl.org/dc/elements/1.1/"
   xmlns:cc="http://creativecommons.org/ns#"
   xmlns:rdf="http://www.w3.org/1999/02/22-rdf-syntax-ns#"
   xmlns:svg="http://www.w3.org/2000/svg"
   xmlns="http://www.w3.org/2000/svg"
   width="255mm"
   height="75mm"
   viewBox="0 0 255 75"
   version="1.1"
   id="svg4712">
  <defs
     id="defs4706" />
  <metadata
     id="metadata4709">
    <rdf:RDF>
      <cc:Work
         rdf:about="">
        <dc:format>image/svg+xml</dc:format>
        <dc:type
           rdf:resource="http://purl.org/dc/dcmitype/StillImage" />
        <dc:title></dc:title>
      </cc:Work>
    </rdf:RDF>
  </metadata>
  <path
     id="path4582"
     transform="scale(0.26458333)"
     d="M 433.68945 2.7714844 L 431.59766 32.177734 L 429.80469 32.103516 L 430.00781 36.017578 L 431.32227 36.072266 L 430.60742 46.105469 L 428.30664 46.083984 L 428.46484 50 L 430.32812 50.019531 L 429.71289 58.660156 L 427.41016 58.658203 L 427.55078 62.578125 L 429.43359 62.580078 L 428.73438 72.419922 L 426.69531 72.441406 L 426.80664 76.363281 L 428.45703 76.34375 L 428.39648 77.201172 C 425.70377 78.101504 423.02868 78.985765 420.29102 79.921875 C 419.02264 79.493277 417.60148 79.164727 416.08789 78.949219 C 416.04821 74.742302 411.57065 71.149908 405.42578 70.394531 C 404.65483 65.083879 400.2288 61.152834 395.01562 61.146484 C 390.20512 61.150264 386.009 64.508329 384.81641 69.308594 C 383.82704 69.006987 382.75438 68.849433 381.66992 68.847656 C 377.40146 68.846863 373.94161 71.198595 373.94141 74.099609 C 373.94556 74.556139 374.03601 75.010744 374.21289 75.451172 C 371.13933 76.873899 369.07959 79.038776 368.49805 81.457031 C 366.26455 81.46837 364.06923 81.696136 362.08398 82.119141 C 361.15503 80.060356 359.2606 78.451056 356.88477 77.703125 C 352.68553 76.382293 348.02517 78.032745 346.04883 81.541016 L 345.28906 84.396484 C 344.96916 83.340787 344.56731 82.536438 344.11914 82.052734 C 343.27154 81.144905 342.36832 81.493426 341.64258 82.789062 A 5.828576 3.8109921 0 0 0 339.85156 82.603516 A 5.828576 3.8109921 0 0 0 334.02148 86.414062 A 5.828576 3.8109921 0 0 0 334.52344 87.949219 C 330.9376 88.466998 327.75783 90.064323 326.03906 92.435547 L 324.76562 96.158203 C 324.76612 97.737089 324.798 100.32997 325.14648 102.99219 A 8.0703367 7.3978079 0 0 0 323.26172 102.7793 A 8.0703367 7.3978079 0 0 0 315.19141 110.17578 A 8.0703367 7.3978079 0 0 0 315.68359 112.70117 C 302.71561 115.66828 289.62401 118.00703 276.49805 119.40625 A 5.6044002 5.380224 0 0 0 271.92578 117.125 A 5.6044002 5.380224 0 0 0 267.38672 119.35938 A 8.5186883 6.7252797 0 0 0 259.5957 115.33203 A 8.5186883 6.7252797 0 0 0 257.58008 115.53125 A 9.4153923 11.432976 0 0 0 249.73242 110.40039 A 9.4153923 11.432976 0 0 0 240.35352 120.93359 A 10.885689 5.0801784 0 0 0 238.64844 120.86523 A 10.885689 5.0801784 0 0 0 227.76367 125.94531 A 10.885689 5.0801784 0 0 0 227.77734 126.13086 C 65.936258 168.06062 83.549808 231.52371 5.5644531 283.51562 C 326.20523 284.06528 646.84538 284.61441 967.48633 285.16406 L 649.50781 152.06055 C 618.22833 129.8582 605.80158 100.15944 570.10156 79.714844 C 573.12912 74.928223 576.58514 70.465876 580.38281 66.261719 C 580.96331 67.531111 581.90811 68.432249 583.09961 68.853516 C 584.68576 69.405667 586.59711 69.074216 588.42969 67.927734 C 589.79138 69.52999 591.66218 70.78579 593.8125 71.541016 C 599.92082 73.682987 606.71192 71.337405 608.98047 66.302734 C 609.44603 65.25796 609.69016 64.145603 609.70312 63.013672 C 611.76474 62.701483 613.56194 61.362227 614.39453 59.515625 C 615.46898 57.122428 614.6812 54.454383 612.50586 53.111328 C 612.71147 52.739045 612.9032 52.357538 613.08008 51.970703 C 615.08958 47.50024 614.79057 43.031899 612.38086 41.533203 C 612.65563 41.066885 612.90573 40.584597 613.12891 40.09375 C 615.65454 34.486254 614.23239 28.723972 609.95117 27.220703 L 609.94922 27.220703 C 607.02825 26.197434 603.387 27.409882 600.5293 30.357422 C 597.14976 29.384534 593.23633 30.637397 590.53125 33.558594 C 590.10239 33.199161 589.60834 32.918298 589.06836 32.726562 C 586.39979 31.791356 583.25987 33.203442 582.05469 35.880859 C 581.73796 36.590655 581.57932 37.344887 581.5918 38.091797 C 579.83609 38.735413 578.43628 39.99512 577.7207 41.576172 C 577.38773 42.318622 577.21651 43.109009 577.21484 43.904297 C 574.38942 43.41035 571.61014 44.691948 570.58789 46.958984 C 569.5856 49.192194 570.56386 51.765707 572.93555 53.134766 C 572.74392 53.374388 572.58816 53.631515 572.4668 53.900391 C 571.3196 56.449682 573.57473 59.633098 577.50586 61.011719 C 578.26596 61.277042 579.05687 61.461611 579.84766 61.558594 C 579.6874 62.665958 579.70114 63.733109 579.88672 64.703125 C 575.60055 69.163648 571.61682 73.764392 567.94531 78.507812 C 562.66475 75.615378 556.88103 72.922434 550.47266 70.478516 C 549.16025 65.018534 548.47724 59.505641 548.27734 53.951172 C 549.29158 54.406189 550.30908 54.442139 551.20312 54.052734 C 552.39005 53.52961 553.27744 52.291944 553.67773 50.603516 C 555.31004 50.839358 557.03808 50.589459 558.65039 49.884766 C 563.22917 47.877572 565.74816 42.775538 564.27539 38.490234 C 563.96698 37.603746 563.49752 36.795786 562.88867 36.101562 C 563.87105 34.795547 564.1453 33.009746 563.60547 31.4375 C 562.90327 29.402565 561.01267 28.208864 559.06641 28.572266 C 558.97834 28.23551 558.8775 27.900341 558.76562 27.570312 C 557.45613 23.768032 554.85713 21.21667 552.69531 21.611328 C 552.59553 21.179101 552.47414 20.751181 552.33203 20.332031 C 551.02976 16.543508 548.21935 13.925658 545.40039 13.873047 C 544.75613 13.861708 544.13306 13.98436 543.55078 14.240234 C 541.36092 15.200197 539.98455 17.909704 539.99219 21.248047 C 537.57541 22.487203 536.07099 25.364246 536.14844 28.601562 C 535.71409 28.616681 535.2861 28.712924 534.88086 28.888672 C 532.88005 29.765107 531.89202 32.324687 532.67578 34.603516 C 532.88479 35.206577 533.20945 35.750185 533.62305 36.197266 C 532.99258 37.538393 532.89539 39.061142 533.35547 40.408203 C 533.57355 41.038893 533.90807 41.612264 534.33984 42.095703 C 532.49249 43.325524 531.63485 45.607131 532.29688 47.537109 C 532.95153 49.437116 534.90129 50.471991 536.97266 50.017578 C 536.99533 50.266271 537.04519 50.505562 537.12305 50.734375 C 537.86882 52.903748 540.86192 53.614373 543.80859 52.322266 C 544.37798 52.071305 544.9212 51.75647 545.41602 51.386719 C 545.92962 52.14527 546.51838 52.784152 547.15039 53.271484 C 547.18441 58.817677 547.51442 64.270504 548.16016 69.619141 C 540.8078 66.946977 532.65883 64.59096 523.51562 62.630859 C 520.97525 61.970387 518.34906 61.478926 515.6543 61.117188 C 515.53373 60.705635 515.41883 60.29429 515.29297 59.882812 C 515.58664 59.450812 515.82554 58.934834 515.99414 58.361328 C 516.36945 58.484919 516.76401 58.564838 517.16211 58.599609 C 519.22086 58.779137 520.922 57.72012 520.96289 56.232422 C 520.96667 56.075571 520.95123 55.917448 520.91797 55.759766 C 522.27765 55.606695 523.27438 54.565051 523.31055 53.261719 C 523.34456 51.938506 522.38109 50.714484 521.00977 50.34375 C 521.18173 49.956348 521.27501 49.53481 521.28711 49.101562 C 521.30979 48.178111 520.95812 47.263062 520.3125 46.570312 C 520.48107 46.20899 520.57542 45.807268 520.58789 45.392578 C 520.62947 43.829592 519.53052 42.463309 518.13281 42.341797 C 517.84973 42.31912 517.56666 42.350759 517.29688 42.431641 C 516.72038 40.426261 515.24153 38.970163 513.51758 38.712891 C 512.87975 36.661514 511.51365 35.284123 509.98438 35.148438 L 509.98047 35.148438 C 507.73864 34.956815 505.85136 37.452672 505.76367 40.724609 C 505.75611 41.011476 505.76534 41.297912 505.78711 41.583984 C 504.38309 41.792236 503.27704 43.901173 503.20508 46.509766 C 503.2013 46.736537 503.20238 46.963513 503.21289 47.189453 C 501.94716 47.372004 501.01591 48.499987 500.97656 49.896484 C 500.94633 50.974973 501.46114 52.0157 502.31641 52.613281 C 502.07641 53.166377 501.94441 53.758721 501.92578 54.367188 C 501.84641 57.307169 504.37792 59.918299 507.57812 60.197266 C 508.70458 60.294777 509.8139 60.088202 510.77148 59.603516 C 511.03907 60.047912 511.35525 60.414151 511.70508 60.683594 C 493.06988 59.161668 471.07591 63.896402 446.78125 71.285156 L 445.53125 62.59375 L 446.81836 62.595703 L 446.67578 58.675781 L 444.9668 58.673828 L 443.74219 50.158203 L 446.01172 50.179688 L 445.85156 46.263672 L 443.17773 46.236328 L 441.77734 36.509766 L 443.53711 36.583984 L 443.33594 32.671875 L 441.21289 32.582031 L 436.98242 3.1953125 L 433.68945 2.7714844 z M 435.87891 18.712891 L 437.85547 32.441406 L 434.91016 32.320312 L 435.87891 18.712891 z M 434.63281 36.208984 L 438.41992 36.369141 L 439.83398 46.203125 L 433.92773 46.140625 L 434.63281 36.208984 z M 433.65039 50.052734 L 440.39844 50.123047 L 441.62891 58.671875 L 433.03711 58.664062 L 433.65039 50.052734 z M 514.73242 60.535156 C 514.77513 60.691251 514.80999 60.84785 514.85156 61.003906 C 514.63122 60.97745 514.40868 60.952679 514.1875 60.927734 C 514.37723 60.823797 514.55947 60.693405 514.73242 60.535156 z M 432.75781 62.580078 L 442.19336 62.591797 L 442.26953 63.113281 L 443.58594 72.257812 L 432.06055 72.384766 L 432.74023 62.822266 L 432.75781 62.580078 z "
     style="fill:#000000;stroke:#000000;stroke-width:1.00946236px;stroke-linecap:butt;stroke-linejoin:miter;stroke-opacity:1" />
</svg>
