<?xml version="1.0" encoding="UTF-8" standalone="no"?>
<svg
   xmlns:dc="http://purl.org/dc/elements/1.1/"
   xmlns:cc="http://creativecommons.org/ns#"
   xmlns:rdf="http://www.w3.org/1999/02/22-rdf-syntax-ns#"
   xmlns:svg="http://www.w3.org/2000/svg"
   xmlns="http://www.w3.org/2000/svg"
   id="svg4712"
   version="1.1"
   viewBox="0 0 175 90"
   height="90mm"
   width="175mm">
  <defs
     id="defs4706" />
  <metadata
     id="metadata4709">
    <rdf:RDF>
      <cc:Work
         rdf:about="">
        <dc:format>image/svg+xml</dc:format>
        <dc:type
           rdf:resource="http://purl.org/dc/dcmitype/StillImage" />
        <dc:title></dc:title>
      </cc:Work>
    </rdf:RDF>
  </metadata>
  <g
     transform="translate(0,-207)"
     id="layer1">
    <path
       id="rect4574"
       d="m 126.25815,207.04433 -4.0976,18.90796 -1.21638,-0.21677 -0.2177,2.56093 0.89168,0.15883 -1.39807,6.452 -1.56668,-0.23126 -0.24745,2.55939 1.26859,0.18728 -1.20386,5.55593 -1.56981,-0.21677 -0.2605,2.55886 1.28425,0.17746 -1.37092,6.32679 -1.39231,-0.17642 -0.28034,2.55784 1.12555,0.14279 -1.88148,8.68337 c -2.94742,0.6395 -6.93349,1.74433 -11.67729,3.17814 -0.63183,-2.40723 -1.36978,-4.80368 -2.20463,-7.19079 a 3.4060429,5.203782 0 0 0 0.70268,-1.64727 3.9737167,2.8128552 0 0 0 1.24771,0.14434 3.9737167,2.8128552 0 0 0 3.97387,-2.81289 3.9737167,2.8128552 0 0 0 -0.0611,-0.48838 3.122206,2.8831764 0 0 0 2.47349,-2.81651 3.122206,2.8831764 0 0 0 -2.53196,-2.82996 3.5479615,3.5160689 0 0 0 0.26155,-1.31927 3.5479615,3.5160689 0 0 0 -1.10884,-2.54697 2.6964504,2.9534981 0 0 0 0.25737,-1.25046 2.6964504,2.9534981 0 0 0 -2.6964,-2.95309 2.6964504,2.9534981 0 0 0 -0.88593,0.16711 4.683309,5.5553881 0 0 0 -4.123696,-3.5284 4.3285128,6.1882816 0 0 0 -3.860582,-3.38974 4.3285128,6.1882816 0 0 0 -4.328342,6.18814 4.3285128,6.1882816 0 0 0 0.04959,0.894 2.9802878,5.4147462 0 0 0 -2.604001,5.36451 2.9802878,5.4147462 0 0 0 0.02871,0.70568 2.9093283,3.0941406 0 0 0 -2.299645,3.02138 2.9093283,3.0941406 0 0 0 1.501425,2.70683 6.1734523,5.5553881 0 0 0 -0.365959,1.86405 6.1734523,5.5553881 0 0 0 6.173276,5.55542 6.1734523,5.5553881 0 0 0 3.379773,-0.90849 3.4060429,5.203782 0 0 0 2.368032,1.47137 3.4060429,5.203782 0 0 0 1.87104,-0.86244 c 0.699579,2.22064 1.269029,4.48421 1.687809,6.7976 -28.143212,8.59019 -80.842675,27.80246 -101.5142387,30.2304 58.3334507,0.0892 116.6665387,0.17828 174.9999987,0.26748 v -27.56031 c -1.56382,-0.21241 -3.32546,-0.44695 -5.03989,-0.67619 a 6.6822784,4.5409453 0 0 0 0.0966,-0.75431 l -0.69171,-2.01149 a 6.6822784,4.5409453 0 0 0 -7.80157,-2.35451 l -0.0715,-0.91107 a 1.5833517,4.7060303 0 0 0 -1.95353,-2.3452 1.5833517,4.7060303 0 0 0 -0.63585,1.26702 l -0.41347,-1.54329 a 4.7730563,4.1625332 0 0 0 -5.88981,-2.07461 4.7730563,4.1625332 0 0 0 -2.82587,2.38658 7.8278121,3.2165028 0 0 0 -3.48732,-0.35801 7.6368898,4.9193575 0 0 0 -3.10569,-3.24489 4.2002895,2.8380909 0 0 0 0.14722,-0.73051 4.2002895,2.8380909 0 0 0 -4.20044,-2.83824 4.2002895,2.8380909 0 0 0 -1.71076,0.24989 5.7276676,5.8653874 0 0 0 -5.54421,-4.41205 5.7276676,5.8653874 0 0 0 -2.7841,0.74603 l -0.0313,-2.86462 0.87705,0.12106 0.25998,-2.55886 -1.16574,-0.1609 -0.0621,-5.64699 1.54529,0.22764 0.24744,-2.55938 -1.82144,-0.26851 -0.0705,-6.44942 1.19393,0.21264 0.2177,-2.56094 -1.44035,-0.25661 -0.21352,-19.48534 z m 0.0428,10.56242 0.0997,9.10141 -1.99476,-0.35543 z m -2.43799,11.24897 2.56642,0.45734 0.0715,6.5203 -4.02137,-0.5929 z m -1.92847,8.90015 4.59511,0.67722 0.0621,5.6682 -5.85691,-0.80967 z m -1.74574,8.0553 6.43169,0.88882 0.004,0.34612 0.0569,5.17205 a 5.7276676,5.8653874 0 0 0 -0.36284,0.84485 l -7.49511,-0.95039 1.33228,-6.1478 z m -1.91228,8.82565 4.4458,0.5634 a 7.0641231,4.7301514 0 0 0 -2.46461,3.55375 7.6368898,3.4057087 0 0 0 -3.05087,0.8195 z"
       style="fill:#000000;fill-opacity:1;stroke-width:0.14078073" />
  </g>
</svg>
