<?xml version="1.0" encoding="UTF-8" standalone="no"?>
<svg
   xmlns:dc="http://purl.org/dc/elements/1.1/"
   xmlns:cc="http://creativecommons.org/ns#"
   xmlns:rdf="http://www.w3.org/1999/02/22-rdf-syntax-ns#"
   xmlns:svg="http://www.w3.org/2000/svg"
   xmlns="http://www.w3.org/2000/svg"
   id="svg4712"
   version="1.1"
   viewBox="0 0 200 95"
   height="95mm"
   width="200mm">
  <defs
     id="defs4706" />
  <metadata
     id="metadata4709">
    <rdf:RDF>
      <cc:Work
         rdf:about="">
        <dc:format>image/svg+xml</dc:format>
        <dc:type
           rdf:resource="http://purl.org/dc/dcmitype/StillImage" />
        <dc:title></dc:title>
      </cc:Work>
    </rdf:RDF>
  </metadata>
  <g
     transform="translate(0,-202)"
     id="layer1">
    <path
       id="rect4574-37-8"
       d="m 11.745159,202.43943 -2.4817158,4.06565 -0.264424,-0.1466 -0.257629,0.5771 0.193875,0.10776 -0.846576,1.38785 -0.3449,-0.1782 -0.264945,0.57451 0.279578,0.14454 -0.728994,1.19462 -0.346993,-0.1751 -0.267559,0.57348 0.28376,0.1435 -0.829851,1.3604 -0.309365,-0.15179 -0.271742,0.57193 0.249793,0.12278 -0.610893,1.00087 c -1.543229,0.40926 -3.10884,0.92717 -4.74447297,1.57073 0.09008,27.41862 0.180071,54.83734 0.270174,82.25597 C 67.299199,297.2238 133.33518,297.27636 200.18211,297.06073 160.40654,277.70247 130.83198,253.57548 97.272139,247.07409 c -15.74592,-3.05037 -36.20606,-15.73103 -53.12932,-24.85914 -0.005,-0.70327 0.0497,-1.39951 0.15468,-2.08981 a 1.3810806,1.0055225 78.054564 0 0 0.58738,0.13106 1.3810806,1.0055225 78.054564 0 0 0.61611,-0.50199 1.4734431,1.8236888 82.181376 0 0 1.02843,0.0679 1.4734431,1.8236888 82.181376 0 0 1.52123,-1.75671 1.4734431,1.8236888 82.181376 0 0 -0.1991,-0.4678 0.86058099,0.81956352 0.52380652 0 0 0.30256,-0.7807 0.86058099,0.81956352 0.52380652 0 0 -0.81939,-0.67243 1.4369477,0.87990727 78.598488 0 0 -0.0267,-0.18546 1.4369477,0.87990727 78.598488 0 0 -1.02425,-1.26819 1.6424737,1.2777678 77.637102 0 0 -0.0297,-0.23519 1.6424737,1.2777678 77.637102 0 0 -1.56721,-1.39667 1.6424737,1.2777678 77.637102 0 0 -0.955267,1.07651 1.4758406,1.3812406 71.856209 0 0 -1.025296,1.12624 0.79946626,0.78049581 13.927315 0 0 -0.265991,0.001 0.79946626,0.78049581 13.927315 0 0 -0.638067,0.90451 0.79946626,0.78049581 13.927315 0 0 0.136915,0.31291 0.93227068,1.0484214 84.148091 0 0 -0.195965,0.71957 0.93227068,1.0484214 84.148091 0 0 0.141094,0.33051 0.76465912,0.92237301 82.509408 0 0 -0.596261,0.86463 0.76465912,0.92237301 82.509408 0 0 0.859642,0.61026 0.74619224,1.1736407 80.942837 0 0 0.0068,0.13055 0.74619224,1.1736407 80.942837 0 0 1.29599,0.53411 0.74619224,1.1736407 80.942837 0 0 0.355873,-0.1 1.3810806,1.0055225 78.054564 0 0 0.286383,0.39423 c -0.12971,0.692 -0.22576,1.38142 -0.290041,2.06806 -3.260541,-1.75432 -6.391543,-3.37724 -9.32381,-4.76399 0.355233,-0.79875 0.664202,-1.62611 0.928096,-2.48198 a 1.0023474,1.3854553 39.928021 0 0 0.437919,-0.21861 1.1702942,0.74832596 36.196623 0 0 0.269125,0.25177 1.1702942,0.74832596 36.196623 0 0 1.398417,0.11967 1.1702942,0.74832596 36.196623 0 0 0.06637,-0.11242 0.91991581,0.7667016 34.071357 0 0 1.047246,-0.14764 0.91991581,0.7667016 34.071357 0 0 -0.125942,-1.03973 1.0458498,0.93456295 31.78174 0 0 0.279577,-0.22846 1.0458498,0.93456295 31.78174 0 0 0.161477,-0.72786 0.80000787,0.77996734 4.3557988 0 0 0.26756,-0.21447 0.80000787,0.77996734 4.3557988 0 0 -0.144231,-1.09516 0.80000787,0.77996734 4.3557988 0 0 -0.235682,-0.12226 1.3762075,1.4812381 47.052477 0 0 -0.384095,-1.46815 1.2736819,1.6477427 40.446001 0 0 -0.345421,-1.39252 1.2736819,1.6477427 40.446001 0 0 -0.612463,-0.21085 1.2736819,1.6477427 40.446001 0 0 -1.428201,0.73097 1.2736819,1.6477427 40.446001 0 0 -0.13639,0.19531 0.87717612,1.4414218 39.244885 0 0 -1.499274,0.65533 0.87717612,1.4414218 39.244885 0 0 -0.110264,0.15231 0.85928444,0.82080014 22.477858 0 0 -1.039928,0.2212 0.85928444,0.82080014 22.477858 0 0 -0.09563,0.83095 1.8187568,1.4774387 34.521825 0 0 -0.394546,0.32327 1.8187568,1.4774387 34.521825 0 0 0.529894,2.25507 1.8187568,1.4774387 34.521825 0 0 0.943775,0.41081 1.0023474,1.3854553 39.928021 0 0 0.312499,0.72786 1.0023474,1.3854553 39.928021 0 0 0.582149,0.15283 c -0.270818,0.78197 -0.611975,1.53732 -1.031564,2.26336 -6.77743,-3.17836 -12.49673,-5.08876 -16.404725,-4.53087 -3.20186,-0.23518 -6.069163,-0.17433 -8.8843248,0.23779 l 0.293164,-0.87292 0.193877,0.0979 0.267559,-0.57349 -0.25763,-0.13003 0.442623,-1.31636 0.3401958,0.17562 0.264424,-0.57504 -0.4008148,-0.20722 0.5053308,-1.50338 0.25972,0.14402 0.25763,-0.57763 -0.313023,-0.17406 1.526447,-4.54278 z m -0.845006,2.45659 -0.712796,2.12193 -0.4342598,-0.24089 z m -1.4757578,2.41878 0.559156,0.31031 -0.511078,1.52047 -0.885768,-0.45743 z m -1.167957,1.91419 1.01223,0.52271 -0.444191,1.32155 -1.294422,-0.65378 z m -1.057171,1.73236 1.421407,0.7175 -0.02717,0.0808 -0.385661,1.14644 c -0.157975,0.0261 -0.316153,0.0498 -0.473977,0.0782 l -1.361313,-0.66829 0.806336,-1.32154 z m -1.158033,1.89762 0.664717,0.32637 c -0.333937,0.0706 -0.668401,0.14743 -1.003347,0.22846 z"
       style="fill:#000000;fill-opacity:1;stroke-width:0.03458856" />
  </g>
</svg>
