<?xml version="1.0" encoding="UTF-8" standalone="no"?>
<svg
   xmlns:dc="http://purl.org/dc/elements/1.1/"
   xmlns:cc="http://creativecommons.org/ns#"
   xmlns:rdf="http://www.w3.org/1999/02/22-rdf-syntax-ns#"
   xmlns:svg="http://www.w3.org/2000/svg"
   xmlns="http://www.w3.org/2000/svg"
   id="svg4712"
   version="1.1"
   viewBox="0 0 50 50"
   height="50mm"
   width="50mm">
  <defs
     id="defs4706" />
  <metadata
     id="metadata4709">
    <rdf:RDF>
      <cc:Work
         rdf:about="">
        <dc:format>image/svg+xml</dc:format>
        <dc:type
           rdf:resource="http://purl.org/dc/dcmitype/StillImage" />
        <dc:title></dc:title>
      </cc:Work>
    </rdf:RDF>
  </metadata>
  <g
     transform="translate(0,-247)"
     id="layer1">
    <path
       id="path4870-0"
       d="m 29.118745,247.00756 a 3.9040299,9.8773779 27.37899 0 0 -7.349851,7.06206 3.9040299,9.8773779 27.37899 0 0 -1.155969,10.63586 3.9040299,9.8773779 27.37899 0 0 0.814735,0.1893 c 2.034178,0.46298 3.654174,0.15243 7.782228,2.43916 l -6.71129,12.83384 a 11.158339,5.6790278 7.9481847 0 0 -0.549083,-0.0855 11.158339,5.6790278 7.9481847 0 0 -7.130884,0.30617 2.5936523,4.1967839 7.1896804 0 0 -0.02723,-0.0941 4.3458645,4.6163763 0 0 0 1.957365,-3.85317 4.3458645,4.6163763 0 0 0 -3.571832,-4.54022 c 0.008,-0.41894 -0.01,-0.93071 0.542417,-1.79887 -0.478039,0.33953 -1.284818,0.78316 -1.177643,1.48357 -0.264914,-0.76286 -1.132693,-1.52579 -1.972373,-2.28864 0.567201,0.84059 1.048183,1.67624 1.113732,2.48819 -0.346784,-0.67619 -1.237761,-1.04724 -2.304157,-1.3205 0.825842,0.40771 1.726903,0.78946 1.536105,1.50524 l 0.18451,0.0707 a 4.3458645,4.6163763 0 0 0 -2.993848,3.74997 c -0.818057,0.28417 -1.749126,0.51259 -2.721529,0.51259 -2.973642,0 -5.38414899999969,0.51237 -5.384148,1.14431 1.0000003e-6,0.63194 2.427774,0.81604 5.384148,1.14433 1.355244,0.15049 2.400301,0.16035 3.206146,0.0553 a 4.3458645,4.6163763 0 0 0 1.688382,1.81198 2.5936523,4.1967839 7.1896804 0 0 -0.4457155,1.6626 2.5936523,4.1967839 7.1896804 0 0 0.3595735,3.01789 11.158339,5.6790278 7.9481847 0 0 10.288679,6.20567 11.158339,5.6790278 7.9481847 0 0 2.787665,0.19157 1.3053408,3.0689728 0 0 0 -0.131159,1.33363 1.3053408,3.0689728 0 0 0 0.145051,1.40545 c -0.934336,0.0438 -2.085781,0.15736 -3.300068,0.15736 -2.823603,0 -4.84062,-0.63848 -4.84062,0.50175 0,2.14457 2.289336,2.06456 5.11294,2.06456 2.704662,0 4.912866,-0.84844 5.0946,-1.92202 a 1.3053408,3.0689728 0 0 0 0.398476,-2.2071 1.3053408,3.0689728 0 0 0 -0.15839,-1.46078 11.158339,5.6790278 7.9481847 0 0 6.54067,-3.62738 c 0.414413,-0.51603 0.831085,-1.83442 1.03704,-3.41414 0.27179,-2.08472 -0.170617,-3.20547 -0.170617,-3.20547 0,0 -0.356382,1.26901 -1.590013,2.94889 -0.05439,0.074 -0.09882,0.15055 -0.144498,0.22636 a 11.158339,5.6790278 7.9481847 0 0 -4.48716,-2.99565 l 6.190548,-11.83948 c 3.377204,2.11471 4.076312,3.45016 5.644241,5.03855 a 3.9032464,10.100661 27.390725 0 0 0.913103,1.29086 3.9032464,10.100661 27.390725 0 0 8.100675,-7.06834 3.9032464,10.100661 27.390725 0 0 1.259896,-10.83257 3.9032464,10.100661 27.390725 0 0 -2.222462,0.20584 c -2.006014,0.0119 -3.793897,-0.3074 -9.332783,-3.27845 -2.497208,-1.00417 -5.099059,-4.06146 -6.53289,-5.94283 a 3.9040299,9.8773779 27.37899 0 0 -1.028703,-1.71563 3.9040299,9.8773779 27.37899 0 0 -0.648008,-0.19271 z m -0.150611,0.92024 a 3.1192361,9.0179975 27.439188 0 1 0.09726,0.0411 3.1192361,9.0179975 27.439188 0 1 -1.444962,9.49552 3.1192361,9.0179975 27.439188 0 1 -6.28947,6.61848 2.7162595,9.2593819 27.361455 0 0 5.215197,-6.24502 2.7162595,9.2593819 27.361455 0 0 2.421977,-9.91004 z m -4.828393,3.34574 a 2.7162595,9.2593819 27.361455 0 0 -1.737843,2.78867 2.7162595,9.2593819 27.361455 0 0 -1.328253,2.74478 3.1192361,9.0179975 27.439188 0 1 1.07983,-2.35136 3.1192361,9.0179975 27.439188 0 1 1.986266,-3.18209 z M 9.7018005,273.52365 a 0.60035847,1.0520247 12.787468 0 1 0.102259,0.01 0.60035847,1.0520247 12.787468 0 1 0.3445675,1.16771 0.60035847,1.0520247 12.787468 0 1 -0.821405,0.88147 0.60035847,1.0520247 12.787468 0 1 -0.344567,-1.1677 0.60035847,1.0520247 12.787468 0 1 0.7191455,-0.89117 z m 10.7377305,7.41557 c 0.616674,0.016 1.317764,0.10117 2.110197,0.26968 4.226288,0.89884 6.147794,4.5852 5.809301,6.26042 0,0 -1.597448,-3.27078 -5.82375,-4.16962 -4.226305,-0.89884 -5.888217,0.18986 -5.888217,0.18986 0.03564,-1.38959 1.120207,-2.61994 3.792469,-2.55034 z"
       style="fill:#ffffff;fill-opacity:1;stroke:none;stroke-width:0.21814463;stroke-opacity:1" />
  </g>
</svg>
