<?xml version="1.0" encoding="UTF-8" standalone="no"?>
<svg
   xmlns:dc="http://purl.org/dc/elements/1.1/"
   xmlns:cc="http://creativecommons.org/ns#"
   xmlns:rdf="http://www.w3.org/1999/02/22-rdf-syntax-ns#"
   xmlns:svg="http://www.w3.org/2000/svg"
   xmlns="http://www.w3.org/2000/svg"
   id="svg6032"
   version="1.1"
   viewBox="0 0 33 33"
   height="33mm"
   width="33mm">
  <defs
     id="defs6026" />
  <metadata
     id="metadata6029">
    <rdf:RDF>
      <cc:Work
         rdf:about="">
        <dc:format>image/svg+xml</dc:format>
        <dc:type
           rdf:resource="http://purl.org/dc/dcmitype/StillImage" />
        <dc:title></dc:title>
      </cc:Work>
    </rdf:RDF>
  </metadata>
  <g
     transform="translate(0,-264)"
     id="layer1">
    <path
       id="rect4899-8"
       d="m 19.208473,264.06439 a 2.5675528,6.4959099 27.380008 0 0 -4.833987,4.64444 2.5675528,6.4959099 27.380008 0 0 -0.760078,6.99422 2.5675528,6.4959099 27.380008 0 0 0.535741,0.12453 c 1.33797,0.30463 2.403646,0.10077 5.118249,1.60419 l -4.413484,8.44078 a 7.3385193,3.7348199 7.9477619 0 0 -0.3616,-0.0567 7.3385193,3.7348199 7.9477619 0 0 -4.6890383,0.20179 1.7057711,2.7600199 7.1901847 0 0 -0.018435,-0.062 2.8581523,3.0359638 0 0 0 1.2876283,-2.53423 2.8581523,3.0359638 0 0 0 -2.3493844,-2.98506 c 0.00525,-0.2757 -0.00674,-0.6122 0.3569919,-1.18383 -0.319644,0.22702 -0.8637435,0.52478 -0.7713489,0.99888 -0.164347,-0.50943 -0.7396782,-1.01858 -1.3004318,-1.52801 0.3730326,0.55282 0.6893128,1.10228 0.7324192,1.63624 -0.2280631,-0.44469 -0.8142116,-0.68886 -1.5155487,-0.86857 0.5431311,0.26813 1.1355138,0.51921 1.0100252,0.98995 l 0.1229235,0.0473 a 2.8581523,3.0359638 0 0 0 -1.9698573,2.46487 c -0.5381904,0.187 -1.1502639,0.33734 -1.7900792,0.33734 -1.9556812,0 -3.54123675,0.33685 -3.54123675,0.75243 2.97e-6,0.41561 1.59691295,0.53654 3.54123675,0.75246 0.8926282,0.0991 1.577339,0.10461 2.1076339,0.0352 a 2.8581523,3.0359638 0 0 0 1.1093895,1.19645 1.7057711,2.7600199 7.1901847 0 0 -0.2914334,1.09029 1.7057711,2.7600199 7.1901847 0 0 0.2371421,1.98724 7.3385193,3.7348199 7.9477619 0 0 6.7659414,4.07853 7.3385193,3.7348199 7.9477619 0 0 1.832592,0.12873 0.85848584,2.0183125 0 0 0 -0.08554,0.87434 0.85848584,2.0183125 0 0 0 0.09527,0.92427 c -0.614468,0.0288 -1.371573,0.10351 -2.170122,0.10351 -1.857003,0 -3.183218,-0.4199 -3.183218,0.32998 0,1.41043 1.504968,1.35777 3.361971,1.35777 1.777445,0 3.229268,-0.55737 3.350702,-1.26266 a 0.85848584,2.0183125 0 0 0 0.262238,-1.45287 0.85848584,2.0183125 0 0 0 -0.10295,-0.95526 7.3385193,3.7348199 7.9477619 0 0 4.310534,-2.40287 c 0.269229,-0.34793 0.53819,-1.20694 0.671984,-2.23315 0.17875,-1.37102 -0.112166,-2.1081 -0.112166,-2.1081 0,0 -0.23404,0.83467 -1.045368,1.93943 -0.03701,0.0504 -0.06796,0.10181 -0.09886,0.15344 a 7.3385193,3.7348199 7.9477619 0 0 -2.78935,-1.90685 l 4.058539,-7.76139 c 2.09134,1.33589 2.55891,2.1999 3.566333,3.22047 a 2.5670375,6.642753 27.391728 0 0 0.600791,0.84912 2.5670375,6.642753 27.391728 0 0 5.327728,-4.64863 2.5670375,6.642753 27.391728 0 0 0.828202,-7.12402 2.5670375,6.642753 27.391728 0 0 -1.461259,0.13557 c -1.319401,0.008 -2.495089,-0.20245 -6.138004,-2.15644 -1.642388,-0.66042 -3.353731,-2.671 -4.296704,-3.90828 a 2.5675528,6.4959099 27.380008 0 0 -0.676594,-1.12813 2.5675528,6.4959099 27.380008 0 0 -0.426137,-0.12663 z m -0.08605,0.65943 a 2.0514196,5.9307342 27.440133 0 1 -1.032047,6.18347 2.0514196,5.9307342 27.440133 0 1 -4.380193,4.32812 1.78748,6.0857847 28.970292 0 0 3.63855,-4.04334 1.78748,6.0857847 28.970292 0 0 1.77369,-6.46825 z m -1.274824,0.10877 a 1.78748,6.0857847 28.970292 0 0 -3.154024,3.79793 1.78748,6.0857847 28.970292 0 0 -0.491696,0.89117 2.0514196,5.9307342 27.440133 0 1 0.292969,-0.59324 2.0514196,5.9307342 27.440133 0 1 3.352751,-4.09586 z M 6.4387209,281.50293 a 0.39483818,0.69186603 12.78824 0 1 0.06709,0.006 0.39483818,0.69186603 12.78824 0 1 0.2268987,0.76821 0.39483818,0.69186603 12.78824 0 1 -0.540355,0.57957 0.39483818,0.69186603 12.78824 0 1 -0.2268957,-0.76768 0.39483818,0.69186603 12.78824 0 1 0.4732582,-0.58588 z m 7.0614691,4.87668 c 0.405569,0.0106 0.866857,0.0663 1.388018,0.17708 2.779508,0.59111 4.043504,3.01568 3.820886,4.11741 0,0 -1.050587,-2.15119 -3.830107,-2.74232 -2.779519,-0.59111 -3.872618,0.12506 -3.872618,0.12506 0.02344,-0.91387 0.736348,-1.72299 2.493821,-1.67723 z"
       style="fill:#000000;fill-opacity:1;stroke:#080000;stroke-width:0.11588351;stroke-opacity:1" />
  </g>
</svg>
