<?xml version="1.0" encoding="UTF-8" standalone="no"?>
<svg
   xmlns:dc="http://purl.org/dc/elements/1.1/"
   xmlns:cc="http://creativecommons.org/ns#"
   xmlns:rdf="http://www.w3.org/1999/02/22-rdf-syntax-ns#"
   xmlns:svg="http://www.w3.org/2000/svg"
   xmlns="http://www.w3.org/2000/svg"
   width="950"
   height="215"
   viewBox="0 0 251.35416 56.885415"
   version="1.1"
   id="svg6032">
  <defs
     id="defs6026" />
  <metadata
     id="metadata6029">
    <rdf:RDF>
      <cc:Work
         rdf:about="">
        <dc:format>image/svg+xml</dc:format>
        <dc:type
           rdf:resource="http://purl.org/dc/dcmitype/StillImage" />
        <dc:title></dc:title>
      </cc:Work>
    </rdf:RDF>
  </metadata>
  <path
     id="rect4899-8"
     d="m 126.61601,0.17993466 a 2.5569286,6.4496076 27.548305 0 0 -4.81917,4.60645004 2.5569286,6.4496076 27.548305 0 0 -0.75786,6.9363103 2.5569286,6.4496076 27.548305 0 0 0.53375,0.12351 c 1.33392,0.30212 2.39667,0.0998 5.10305,1.59083 l -4.40032,8.37134 a 7.3155669,3.7044405 7.8784855 0 0 -0.36012,-0.0559 7.3155669,3.7044405 7.8784855 0 0 -4.67492,0.19988 1.7004636,2.737525 7.2742987 0 0 -0.0185,-0.0615 2.8494957,3.0109703 0 0 0 1.28388,-2.51335 2.8494957,3.0109703 0 0 0 -2.34261,-2.96026 c 0.005,-0.27343 -0.007,-0.60724 0.356,-1.17416 -0.31868,0.22515 -0.8608,0.52048 -0.76868,0.99068 -0.16385,-0.50524 -0.7377,-1.01026 -1.29676,-1.51549 0.3719,0.54827 0.68706,1.09304 0.73004,1.62261 -0.22737,-0.44103 -0.81135,-0.6833 -1.51056,-0.86153 0.54148,0.26592 1.1318,0.5151 1.00669,0.98197 l 0.12262,0.0471 a 2.8494957,3.0109703 0 0 0 -1.96394,2.44416 c -0.53656,0.18546 -1.14677,0.33467 -1.78465,0.33467 -1.94976,0 -3.53066,0.33405 -3.53066,0.74621 0,0.41219 1.59222,0.53207 3.53066,0.74622 0.88992,0.0983 1.57281,0.1042 2.1015,0.0354 a 2.8494957,3.0109703 0 0 0 1.10561,1.18646 1.7004636,2.737525 7.2742987 0 0 -0.29057,1.08139 1.7004636,2.737525 7.2742987 0 0 0.23648,1.9706 7.3155669,3.7044405 7.8784855 0 0 6.7455,4.04525 7.3155669,3.7044405 7.8784855 0 0 1.82741,0.12761 0.85588568,2.0016968 0 0 0 -0.0855,0.86717 0.85588568,2.0016968 0 0 0 0.0948,0.91637 c -0.6126,0.0286 -1.36719,0.10301 -2.16332,0.10301 -1.85138,0 -3.17363,-0.41672 -3.17363,0.32698 0,1.39882 1.50051,1.34688 3.35189,1.34688 1.77206,0 3.21948,-0.55309 3.34055,-1.25257 a 0.85588568,2.0016968 0 0 0 0.26121,-1.44067 0.85588568,2.0016968 0 0 0 -0.10253,-0.94763 7.3155669,3.7044405 7.8784855 0 0 4.29728,-2.38317 c 0.26841,-0.34507 0.53689,-1.1968 0.67027,-2.21456 0.17821,-1.35973 -0.11179,-2.09104 -0.11179,-2.09104 0,0 -0.23338,0.8283 -1.04225,1.92396 -0.0369,0.05 -0.0676,0.1005 -0.0984,0.15171 a 7.3155669,3.7044405 7.8784855 0 0 -2.78105,-1.89117 l 4.04638,-7.69739 c 2.085,1.3249 2.55101,2.1818 3.55539,3.19397 a 2.5564134,6.595409 27.557703 0 0 0.59866,0.84205 2.5564134,6.595409 27.557703 0 0 5.3117,-4.61003 2.5564134,6.595409 27.557703 0 0 0.82586,-7.0654603 2.5564134,6.595409 27.557703 0 0 -1.45698,0.13428 c -1.3154,0.008 -2.48765,-0.2008 -6.11953,-2.13871 -1.63742,-0.65498 -3.34325,-2.64902 -4.28337,-3.87611 a 2.5569286,6.4496076 27.548305 0 0 -0.6744,-1.11881004 2.5569286,6.4496076 27.548305 0 0 -0.42504,-0.12557 z m -0.086,0.65397 a 2.0429228,5.8884843 27.596503 0 1 -1.02885,6.13269004 2.0429228,5.8884843 27.596503 0 1 -4.36683,4.2922803 1.7798692,6.0431336 29.121662 0 0 3.62752,-4.0098803 1.7798692,6.0431336 29.121662 0 0 1.76816,-6.41509004 z m -1.27099,0.10814 a 1.7798692,6.0431336 29.121662 0 0 -3.14426,3.76643004 1.7798692,6.0431336 29.121662 0 0 -0.48996,0.88408 2.0429228,5.8884843 27.596503 0 1 0.29161,-0.58836 2.0429228,5.8884843 27.596503 0 1 3.34261,-4.06215004 z M 113.88445,17.475105 a 0.39354039,0.68634797 12.916518 0 1 5.2e-4,0 0.39354039,0.68634797 12.916518 0 1 0.067,0.006 0.39354039,0.68634797 12.916518 0 1 0.22618,0.7621 0.39354039,0.68634797 12.916518 0 1 -0.5389,0.57452 0.39354039,0.68634797 12.916518 0 1 -0.22617,-0.76107 0.39354039,0.68634797 12.916518 0 1 0.4714,-0.58119 z m 7.04071,4.83656 c 0.40435,0.0105 0.86425,0.0654 1.38383,0.17527 2.77109,0.58625 4.03133,2.99103 3.80938,4.08368 0,0 -1.04755,-2.13362 -3.81865,-2.71989 -2.7711,-0.58624 -3.86091,0.12403 -3.86091,0.12403 0.0234,-0.90634 0.7342,-1.70848 2.48635,-1.66309 z m -20.59714,5.59712 v 12.87886 c 0,2.09127 -0.7606,3.13657 -2.281819,3.13657 -0.633842,0 -1.177898,-0.21541 -1.632151,-0.64628 -0.454253,-0.44137 -0.681609,-0.96645 -0.681609,-1.57597 0,-0.63053 0.216541,-1.16688 0.649666,-1.60825 0.443689,-0.45189 0.97204,-0.67754 1.584753,-0.67754 0.485945,0 0.972068,0.18903 1.458014,0.56735 v -6.49453 c -0.70779,-0.0631 -1.23614,-0.0943 -1.584753,-0.0943 -2.197318,0 -4.099068,0.80888 -5.704801,2.42725 -1.605732,1.61837 -2.408556,3.53606 -2.408556,5.75344 0,2.29093 0.808231,4.22477 2.424528,5.8011 1.616296,1.57633 3.602499,2.36472 5.958278,2.36472 1.183171,0 2.33462,-0.25742 3.45441,-0.77235 1.13035,-0.51494 2.05986,-1.20856 2.78877,-2.08079 1.26769,-1.51328 1.9016,-3.4735 1.9016,-5.88003 v -13.09924 z m 44.78059,0 v 21.51671 h 5.92685 V 27.908785 Z M 8.6745634,33.378805 c -2.260698,0 -4.199268,0.78787 -5.815568,2.36421 -1.61629,1.57633 -2.42452996,3.47354 -2.42452996,5.69091 0,2.33297 0.79741996,4.30343 2.39258996,5.91129 1.60573,1.60786 3.57081,2.41136 5.894906,2.41136 2.1973176,0 4.0617336,-0.73024 5.5935186,-2.19098 1.531779,-1.46074 2.382241,-3.32618 2.551264,-5.5961 l -5.878938,0.22089 c -0.422559,1.16649 -1.1355226,1.74971 -2.1391046,1.74971 -0.686664,0 -1.262648,-0.23103 -1.727463,-0.69342 -0.454253,-0.46239 -0.681093,-1.03537 -0.681093,-1.71845 0,-0.67257 0.21654,-1.22941 0.649666,-1.67078 0.433125,-0.44137 0.987478,-0.66216 1.663578,-0.66216 0.792301,0 1.4473316,0.33656 1.9649696,1.00913 l 6.005674,-0.22089 c -0.36974,-1.92313 -1.309542,-3.50477 -2.820198,-4.74482 -1.510656,-1.24005 -3.253798,-1.8599 -5.2292716,-1.8599 z m 17.6682396,0 c -2.081112,0 -3.745211,0.67748 -4.991765,2.03313 -1.246554,1.34513 -1.869658,3.15295 -1.869658,5.42287 v 8.59069 h 5.926338 v -7.456 c 0,-1.63938 0.538647,-2.45902 1.616178,-2.45902 0.338049,0 0.713198,0.11577 1.125193,0.34697 v -6.30541 c -0.73948,-0.1156 -1.341471,-0.17323 -1.806286,-0.17323 z m 107.958957,0 c -2.26071,0 -4.19928,0.78787 -5.81557,2.36421 -1.6163,1.57633 -2.42453,3.47354 -2.42453,5.69091 0,2.33297 0.79793,4.30343 2.3931,5.91129 1.60573,1.60786 3.57031,2.41136 5.89439,2.41136 2.19732,0 4.06225,-0.73024 5.59403,-2.19098 1.53179,-1.46074 2.38225,-3.32618 2.55127,-5.5961 l -5.87894,0.22089 c -0.42256,1.16649 -1.13603,1.74971 -2.13962,1.74971 -0.68666,0 -1.26213,-0.23103 -1.72694,-0.69342 -0.45426,-0.46239 -0.68161,-1.03537 -0.68161,-1.71845 0,-0.67257 0.21654,-1.22941 0.64966,-1.67078 0.43313,-0.44137 0.988,-0.66216 1.6641,-0.66216 0.7923,0 1.44733,0.33656 1.96497,1.00913 l 6.00567,-0.22089 c -0.36974,-1.92313 -1.31006,-3.50477 -2.82071,-4.74482 -1.51066,-1.24005 -3.2538,-1.8599 -5.22927,-1.8599 z m 43.81459,0 c -2.32408,0 -4.28377,0.77225 -5.87893,2.31706 -1.59517,1.5448 -2.39311,3.4415 -2.39311,5.6904 0,2.08076 0.66044,3.84118 1.98095,5.2809 1.33106,1.43972 2.95242,2.15972 4.86451,2.15972 0.78173,0 1.60078,-0.15778 2.45647,-0.47305 v -5.40698 c -0.36975,0.18916 -0.75571,0.28393 -1.15714,0.28393 -0.60215,0 -1.10887,-0.19979 -1.52087,-0.59912 -0.40143,-0.39934 -0.60227,-0.89855 -0.60227,-1.49756 0,-0.56748 0.21114,-1.06669 0.6337,-1.49755 0.43312,-0.44138 0.93495,-0.66165 1.50541,-0.66165 1.34163,0 2.01237,0.8245 2.01237,2.4744 v 5.91129 c 0,1.3031 -0.29019,2.30152 -0.8712,2.99511 -0.58103,0.70409 -1.40496,1.05628 -2.47193,1.05628 -0.7923,0 -1.57401,-0.21003 -2.34518,-0.63039 v 5.35932 c 1.19373,0.38883 2.18117,0.58324 2.9629,0.58324 2.56706,0 4.64802,-0.87727 6.24319,-2.63226 1.60573,-1.74447 2.40907,-4.01973 2.40907,-6.8256 v -5.17072 c 0,-2.61671 -0.53917,-4.61304 -1.6167,-5.98971 -0.6444,-0.83019 -1.53168,-1.49257 -2.66203,-1.98648 -1.13035,-0.49392 -2.31322,-0.74058 -3.54921,-0.74058 z m 18.15923,0 c -2.08112,0 -3.7447,0.67748 -4.99125,2.03313 -1.24656,1.34513 -1.87017,3.15295 -1.87017,5.42287 v 8.59069 h 5.92633 v -7.456 c 0,-1.63938 0.53917,-2.45902 1.6167,-2.45902 0.33804,0 0.71268,0.11577 1.12468,0.34697 v -6.30541 c -0.73949,-0.1156 -1.34148,-0.17323 -1.80629,-0.17323 z m 11.02886,0 c -2.38746,0 -4.39478,0.78787 -6.02164,2.36421 -1.62686,1.56582 -2.43998,3.49965 -2.43998,5.8011 0,2.25941 0.81312,4.19324 2.43998,5.8011 1.62686,1.59735 3.58654,2.39599 5.87894,2.39599 2.2924,0 4.24667,-0.79864 5.86297,-2.39599 1.62686,-1.59735 2.4405,-3.53118 2.4405,-5.8011 0,-2.23839 -0.80282,-4.15609 -2.40856,-5.75344 -1.59517,-1.60786 -3.51262,-2.41187 -5.75221,-2.41187 z m -170.059508,0.0159 c -2.292393,0 -4.241779,0.79326 -5.84751,2.3801 -1.595169,1.58684 -2.392586,3.52016 -2.392584,5.80059 0,2.34348 0.792522,4.29293 2.377127,5.84825 1.584604,1.55531 3.5654,2.33294 5.942308,2.33294 0.401432,0 0.844815,-0.042 1.33076,-0.12607 v -6.10041 c -0.44369,0.27323 -0.924406,0.41001 -1.442045,0.41001 -0.633841,0 -1.156783,-0.21004 -1.568779,-0.63039 -0.411998,-0.42036 -0.617725,-0.95619 -0.617725,-1.60774 0,-0.62003 0.226839,-1.15638 0.681093,-1.60826 0.454254,-0.45188 0.993419,-0.67754 1.616696,-0.67754 0.686662,0 1.230718,0.24666 1.63215,0.74058 0.411997,0.49392 0.617724,1.15628 0.617724,1.98649 v 7.28225 h 5.926336 v -7.70815 c 0,-2.57468 -0.739486,-4.60277 -2.218446,-6.08452 -1.4684,-1.49226 -3.480611,-2.23813 -6.037105,-2.23813 z m 206.046178,0 c -1.18317,0 -2.34003,0.25742 -3.47038,0.77235 -1.11979,0.51494 -2.0444,1.20856 -2.77332,2.08079 -1.26768,1.51328 -1.90159,3.47298 -1.90159,5.87952 v 13.11513 h 5.92684 v -12.89425 c 0,-2.09127 0.7606,-3.13708 2.28182,-3.13708 0.63384,0 1.17791,0.22079 1.63215,0.66217 0.45426,0.43086 0.68109,0.95594 0.68109,1.57597 0,0.62002 -0.22194,1.15637 -0.66563,1.60825 -0.43313,0.45188 -0.95608,0.67754 -1.56878,0.67754 -0.48596,0 -0.97156,-0.19441 -1.4575,-0.58324 v 6.49453 c 0.69722,0.0736 1.22505,0.11019 1.58423,0.11019 2.19732,0 4.09907,-0.80888 5.7048,-2.42725 1.60574,-1.61836 2.40857,-3.54144 2.40857,-5.76932 0,-2.29094 -0.80824,-4.22477 -2.42454,-5.8011 -1.61629,-1.57634 -3.60198,-2.36421 -5.95776,-2.36421 z m -195.841629,0.3152 v 6.14755 h 5.007737 l -4.817627,9.56805 h 15.228257 v -6.17882 h -5.578063 l 4.849055,-9.53678 z m 17.399307,0 v 9.88324 c 0,1.68142 0.475308,3.06866 1.42607,4.16158 0.950763,1.08242 2.160147,1.62363 3.628549,1.62363 0.993017,0 2.007491,-0.3048 3.042767,-0.91431 -0.570458,2.15432 -1.817178,3.23188 -3.739833,3.23188 -0.602148,0 -1.304813,-0.16854 -2.107678,-0.50482 v 5.12305 c 1.088095,0.42036 2.181614,0.6309 3.280271,0.6309 2.503676,0 4.637672,-0.95641 6.401867,-2.86903 1.478962,-1.60786 2.218446,-3.72047 2.218446,-6.33719 v -14.02894 h -5.926334 v 8.30728 c 0,1.02987 -0.37515,1.5447 -1.125197,1.5447 -0.781739,0 -1.172592,-0.46796 -1.172592,-1.40325 v -8.44873 z m 89.102152,0 -2.69398,5.45413 3.70789,10.26147 h 6.56054 l -4.31015,-9.99394 2.89954,-5.72166 z m -44.59101,0.22037 v 8.29139 c 0,2.25941 0.53376,4.02521 1.60073,5.29679 1.37332,1.62888 3.18521,2.44314 5.43535,2.44314 1.97547,0 3.64446,-0.69849 5.00722,-2.09617 1.36276,-1.40819 2.04379,-3.13199 2.04379,-5.17072 v -8.76443 h -5.92633 v 8.87514 c 0,0.89325 -0.36974,1.3397 -1.10923,1.3397 -0.75004,0 -1.12467,-0.44645 -1.12467,-1.3397 v -8.87514 z m 108.5772,0 v 8.29139 c 0,2.25941 0.53376,4.02521 1.60073,5.29679 1.37331,1.62888 3.18468,2.44314 5.43483,2.44314 1.97547,0 3.64497,-0.69849 5.00774,-2.09617 1.36276,-1.40819 2.04379,-3.13199 2.04379,-5.17072 v -8.76443 h -5.92634 v 8.87514 c 0,0.89325 -0.36973,1.3397 -1.10921,1.3397 -0.75005,0 -1.1252,-0.44645 -1.1252,-1.3397 v -8.87514 z m -10.79086,5.26502 c 0.64443,0 1.18848,0.23103 1.63216,0.69342 0.44369,0.45188 0.66513,1.00924 0.66513,1.6713 0,0.65155 -0.22684,1.20839 -0.68109,1.67078 -0.44369,0.46239 -0.98234,0.69343 -1.6162,0.69343 -0.62327,0 -1.16243,-0.23104 -1.61668,-0.69343 -0.44369,-0.46239 -0.66513,-1.01923 -0.66513,-1.67078 0,-0.66206 0.22144,-1.21942 0.66513,-1.6713 0.44368,-0.46239 0.98285,-0.69342 1.61668,-0.69342 z"
     style="fill:#000000;fill-opacity:1;stroke:#080000;stroke-width:0.11523062;stroke-opacity:1" />
</svg>
