<?xml version="1.0" encoding="UTF-8" standalone="no"?>
<svg
   xmlns:dc="http://purl.org/dc/elements/1.1/"
   xmlns:cc="http://creativecommons.org/ns#"
   xmlns:rdf="http://www.w3.org/1999/02/22-rdf-syntax-ns#"
   xmlns:svg="http://www.w3.org/2000/svg"
   xmlns="http://www.w3.org/2000/svg"
   id="svg5269"
   version="1.1"
   viewBox="0 0 17 30"
   height="30mm"
   width="17mm">
  <defs
     id="defs5263" />
  <metadata
     id="metadata5266">
    <rdf:RDF>
      <cc:Work
         rdf:about="">
        <dc:format>image/svg+xml</dc:format>
        <dc:type
           rdf:resource="http://purl.org/dc/dcmitype/StillImage" />
        <dc:title></dc:title>
      </cc:Work>
    </rdf:RDF>
  </metadata>
  <g
     transform="translate(-51.976191,-55.970237)"
     id="layer1">
    <path
       style="fill:#aad400;fill-opacity:1;stroke:none;stroke-width:0.06530877;stroke-opacity:1"
       d="m 65.528991,55.970237 v 6.40549 h -8.97227 v -0.4608 h -1.74717 v 0.4608 h -2.36116 v 6.08292 h -0.4722 v 5.62222 h 0.4722 v 11.88937 h 16.5278 v -23.59451 h -1.84169 v -6.40549 z m -6.41756,8.89403 h 0.80276 v 2.3963 h -0.80276 z m 1.19942,0 h 0.8029 v 2.3963 h -0.8029 z m 1.19955,0 h 0.80276 v 2.3963 h -0.80276 z m -1.03414,4.64012 a 6.1861176,6.036863 0 0 1 6.18605,6.03679 6.1861176,6.036863 0 0 1 -6.18605,6.03691 6.1861176,6.036863 0 0 1 -6.18619,-6.03691 6.1861176,6.036863 0 0 1 6.18619,-6.03679 z m 0,0.50693 a 1.0152792,0.99078317 0 0 0 -1.0153,0.9908 1.0152792,0.99078317 0 0 0 1.0153,0.99067 1.0152792,0.99078317 0 0 0 1.01516,-0.99067 1.0152792,0.99078317 0 0 0 -1.01516,-0.9908 z m -2.33792,0.60534 a 1.0152792,0.99078317 0 0 0 -0.48369,0.13244 1.0152792,0.99078317 0 0 0 -0.37163,1.35345 1.0152792,0.99078317 0 0 0 1.38692,0.36265 1.0152792,0.99078317 0 0 0 0.37162,-1.35345 1.0152792,0.99078317 0 0 0 -0.90322,-0.49509 z m 4.60377,6.1e-4 a 1.0152792,0.99078317 0 0 0 -0.83129,0.49434 1.0152792,0.99078317 0 0 0 0.37162,1.35345 1.0152792,0.99078317 0 0 0 1.38692,-0.36265 1.0152792,0.99078317 0 0 0 -0.37163,-1.35345 1.0152792,0.99078317 0 0 0 -0.55549,-0.13169 1.0152792,0.99078317 0 0 1 -1.3e-4,0 z m -6.2497,1.6521 a 1.0152792,0.99078317 0 0 0 -0.072,9.8e-4 1.0152792,0.99078317 0 0 0 -0.83129,0.4942 1.0152792,0.99078317 0 0 0 0.37162,1.35346 1.0152792,0.99078317 0 0 0 1.38691,-0.36266 1.0152792,0.99078317 0 0 0 -0.37161,-1.35345 1.0152792,0.99078317 0 0 0 -0.48371,-0.13243 z m 7.96756,1.2e-4 a 1.0152792,0.99078317 0 0 0 -0.48357,0.13244 1.0152792,0.99078317 0 0 0 -0.37161,1.35345 1.0152792,0.99078317 0 0 0 1.38677,0.36266 1.0152792,0.99078317 0 0 0 0.37163,-1.35346 1.0152792,0.99078317 0 0 0 -0.90322,-0.49509 z m -3.98371,0.46057 a 2.8569481,2.7880175 0 0 0 -2.85699,2.78805 2.8569481,2.7880175 0 0 0 2.85699,2.78793 2.8569481,2.7880175 0 0 0 0.78493,-0.10962 c 0.78949,0.59129 1.62218,1.13906 2.74117,1.39779 0.68212,0.16777 0.89619,-0.30661 0.38,-0.49747 -0.84548,-0.47133 -1.41552,-1.05916 -1.76202,-1.74156 a 2.8569481,2.7880175 0 0 0 0.71278,-1.83707 2.8569481,2.7880175 0 0 0 -2.85686,-2.78805 z m -4.62779,1.79725 a 1.0152792,0.99078317 0 0 0 -1.01529,0.9908 1.0152792,0.99078317 0 0 0 1.01529,0.9908 1.0152792,0.99078317 0 0 0 1.01517,-0.9908 1.0152792,0.99078317 0 0 0 -1.01517,-0.9908 z m 9.25557,0 a 1.0152792,0.99078317 0 0 0 -1.0153,0.9908 1.0152792,0.99078317 0 0 0 1.0153,0.9908 1.0152792,0.99078317 0 0 0 1.01516,-0.9908 1.0152792,0.99078317 0 0 0 -1.01516,-0.9908 z m -8.65954,2.25832 a 1.0152792,0.99078317 0 0 0 -0.48368,0.13242 1.0152792,0.99078317 0 0 0 -0.37163,1.35346 1.0152792,0.99078317 0 0 0 1.38692,0.36265 1.0152792,0.99078317 0 0 0 0.37162,-1.35346 1.0152792,0.99078317 0 0 0 -0.90323,-0.49507 z m 1.74174,1.65284 a 1.0152792,0.99078317 0 0 0 -0.0717,9.8e-4 1.0152792,0.99078317 0 0 0 -0.83142,0.49433 1.0152792,0.99078317 0 0 0 0.37163,1.35332 1.0152792,0.99078317 0 0 0 1.38691,-0.36265 1.0152792,0.99078317 0 0 0 -0.37162,-1.35333 1.0152792,0.99078317 0 0 0 -0.4837,-0.13255 z m 2.29002,0.60497 a 1.0152792,0.99078317 0 0 0 -1.0153,0.9908 1.0152792,0.99078317 0 0 0 1.0153,0.99079 1.0152792,0.99078317 0 0 0 1.01516,-0.99079 1.0152792,0.99078317 0 0 0 -1.01516,-0.9908 z m -1.51114,4.82988 h 3.02214 v 0.66823 h -3.02214 z"
       id="rect4770" />
  </g>
</svg>
