<?xml version="1.0" encoding="UTF-8" standalone="no"?>
<svg
   xmlns:dc="http://purl.org/dc/elements/1.1/"
   xmlns:cc="http://creativecommons.org/ns#"
   xmlns:rdf="http://www.w3.org/1999/02/22-rdf-syntax-ns#"
   xmlns:svg="http://www.w3.org/2000/svg"
   xmlns="http://www.w3.org/2000/svg"
   id="svg5835"
   version="1.1"
   viewBox="0 0 39.999996 30.000006"
   height="30.000006mm"
   width="39.999996mm">
  <defs
     id="defs5829" />
  <metadata
     id="metadata5832">
    <rdf:RDF>
      <cc:Work
         rdf:about="">
        <dc:format>image/svg+xml</dc:format>
        <dc:type
           rdf:resource="http://purl.org/dc/dcmitype/StillImage" />
        <dc:title></dc:title>
      </cc:Work>
    </rdf:RDF>
  </metadata>
  <g
     transform="translate(-79.785715,-67.309521)"
     id="layer1">
    <path
       style="fill:#aad400;fill-opacity:1;stroke:none;stroke-width:0.05309145;stroke-opacity:1"
       d="m 114.93985,67.309521 -5.09084,6.75923 -0.97682,-1.02671 -1.15085,1.52802 2.15561,2.26627 c -1.46345,1.63966 -3.06845,5.59544 -5.80928,9.23443 -4.216785,5.59861 -9.137395,8.557809 -7.064585,10.81787 1.95414,2.054521 4.209545,-3.78795 8.426335,-9.38656 2.74082,-3.63896 5.81557,-6.04918 6.97886,-8.00441 l 2.11257,2.22106 1.15085,-1.52801 -0.97682,-1.02704 5.09083,-6.75923 -0.43938,-0.34058 -0.25113,-0.1429 -0.0198,-0.26336 -0.0676,-0.0713 -0.26032,0.0697 -0.18214,-0.3934 -0.20251,-0.0716 -0.0816,-0.18646 -0.26956,-0.14192 0.0953,-0.22344 -0.10222,-0.10755 -3.51458,4.66623 -0.0952,-0.10029 3.4548,-4.58701 -0.074,-0.21946 -0.22264,-0.23399 -0.11313,0.0508 -0.24106,-0.0891 -0.44833,-0.0789 -0.006,-0.43431 0.0218,-0.20528 -0.0146,-0.0851 -0.27962,-0.29371 -0.12319,0.0258 -0.30781,-0.0805 -0.17906,-0.45246 -0.22262,-0.10561 -0.10531,-0.26105 0.036,-0.0746 -0.20865,-0.21912 -4.09168,5.43253 -0.10503,-0.11055 3.95591,-5.25203 -0.18129,-0.19075 z m -22.733745,0.91417 c -6.83577,-0.005 -11.22844,2.69913 -12.28951,8.15524 -0.94973,4.88365 3.39569,8.2744 8.93556,9.64496 0.0193,0.4779 0.0358,1.0614 0.0358,1.78278 -0.0247,4.47999 -1.67756,6.892249 0.14777,6.892249 1.82532,0 0.17293,-2.321089 0.22234,-6.947029 0,-0.64608 0.0175,-1.17735 0.0391,-1.62239 1.75794,0.39628 3.62292,0.59227 5.46794,0.57126 3.65254,-0.0416 1.51665,-2.03088 3.91288,-3.61376 2.396235,-1.58287 9.118965,1.6059 9.328585,-5.1332 0,-5.06948 -5.94117,-8.96608 -13.241465,-9.6113 -0.64805,-0.0573 -1.27827,-0.0937 -1.88997,-0.10957 -0.22556,-0.005 -0.44849,-0.009 -0.669,-0.01 z m 0.30447,0.65841 a 2.2398533,1.8556811 5.9867207 0 1 0.15839,6.3e-4 2.2398533,1.8556811 5.9867207 0 1 2.23577,1.93165 2.2398533,1.8556811 5.9867207 0 1 -2.23577,1.78608 2.2398533,1.8556811 5.9867207 0 1 -2.23606,-1.93197 2.2398533,1.8556811 5.9867207 0 1 2.07767,-1.78642 z m 0.15839,0.17491 a 2.0994111,1.6820724 5.2368844 0 0 -2.0964,1.61612 2.0994111,1.6820724 5.2368844 0 0 2.0964,1.75309 2.0994111,1.6820724 5.2368844 0 0 2.09611,-1.61612 2.0994111,1.6820724 5.2368844 0 0 -2.09611,-1.75309 z m -5.36402,0.44487 a 2.2398533,1.8556811 5.9867207 0 1 0.1581,3.2e-4 2.2398533,1.8556811 5.9867207 0 1 2.23605,1.931971 2.2398533,1.8556811 5.9867207 0 1 -2.23605,1.786079 2.2398533,1.8556811 5.9867207 0 1 -2.23606,-1.931949 2.2398533,1.8556811 5.9867207 0 1 2.07796,-1.786421 z m 0.1581,0.17491 a 2.0994111,1.6820724 5.2368844 0 0 -2.09639,1.61613 2.0994111,1.6820724 5.2368844 0 0 2.09639,1.75309 2.0994111,1.6820724 5.2368844 0 0 2.09638,-1.61646 2.0994111,1.6820724 5.2368844 0 0 -2.09638,-1.75276 z m 10.70737,0.0812 a 2.2398533,1.8556811 5.9867207 0 1 0.15838,3.31e-4 2.2398533,1.8556811 5.9867207 0 1 2.235775,1.93195 2.2398533,1.8556811 5.9867207 0 1 -2.235775,1.78577 2.2398533,1.8556811 5.9867207 0 1 -2.23606,-1.93196 2.2398533,1.8556811 5.9867207 0 1 2.07768,-1.786091 z m 0.15838,0.17458 a 2.0994111,1.6820724 5.2368844 0 0 -2.0964,1.61614 2.0994111,1.6820724 5.2368844 0 0 2.0964,1.75309 2.0994111,1.6820724 5.2368844 0 0 2.096105,-1.61614 2.0994111,1.6820724 5.2368844 0 0 -2.096105,-1.75309 z m 4.383565,2.44085 v 3.44e-4 a 2.2398533,1.8556811 5.9867207 0 1 0.15838,3.18e-4 2.2398533,1.8556811 5.9867207 0 1 2.23577,1.93163 2.2398533,1.8556811 5.9867207 0 1 -2.23577,1.78609 2.2398533,1.8556811 5.9867207 0 1 -2.23606,-1.93197 2.2398533,1.8556811 5.9867207 0 1 2.07768,-1.78643 z m 0.15838,0.17492 a 2.0994111,1.6820724 5.2368844 0 0 -2.0964,1.61613 2.0994111,1.6820724 5.2368844 0 0 2.0964,1.75309 2.0994111,1.6820724 5.2368844 0 0 2.0961,-1.61612 2.0994111,1.6820724 5.2368844 0 0 -2.0961,-1.7531 z m -19.199355,0.22343 a 2.2398533,1.8556811 5.9867207 0 1 0.1581,6.35e-4 2.2398533,1.8556811 5.9867207 0 1 2.23606,1.93165 2.2398533,1.8556811 5.9867207 0 1 -2.23606,1.78609 2.2398533,1.8556811 5.9867207 0 1 -2.23605,-1.93196 2.2398533,1.8556811 5.9867207 0 1 2.07795,-1.78644 z m 0.1581,0.17492 a 2.0994111,1.6820724 5.2368844 0 0 -2.0961,1.61612 2.0994111,1.6820724 5.2368844 0 0 2.0961,1.75308 2.0994111,1.6820724 5.2368844 0 0 2.09639,-1.61611 2.0994111,1.6820724 5.2368844 0 0 -2.09639,-1.75309 z m -0.19302,4.29856 a 2.2398533,1.8556811 5.9867207 0 1 0.15811,3.18e-4 2.2398533,1.8556811 5.9867207 0 1 2.23605,1.93197 2.2398533,1.8556811 5.9867207 0 1 -2.23605,1.78576 2.2398533,1.8556811 5.9867207 0 1 -2.23606,-1.93164 2.2398533,1.8556811 5.9867207 0 1 2.07795,-1.78642 z m 0.15811,0.17492 a 2.0994111,1.6820724 5.2368844 0 0 -2.0964,1.6158 2.0994111,1.6820724 5.2368844 0 0 2.0964,1.75342 2.0994111,1.6820724 5.2368844 0 0 2.09639,-1.61648 2.0994111,1.6820724 5.2368844 0 0 -2.09639,-1.75274 z m 14.85461,1.15839 v 3.18e-4 a 1.6367377,2.3744319 75.450463 0 1 0.22933,6.35e-4 1.6367377,2.3744319 75.450463 0 1 1.705045,0.96103 1.6367377,2.3744319 75.450463 0 1 -1.649455,2.25705 1.6367377,2.3744319 75.450463 0 1 -2.86036,-0.79867 1.6367377,2.3744319 75.450463 0 1 1.64946,-2.25671 1.6367377,2.3744319 75.450463 0 1 0.92598,-0.16368 z m -10.9948,1.89038 a 2.2398533,1.8556811 5.9867207 0 1 0.15811,3.18e-4 2.2398533,1.8556811 5.9867207 0 1 2.23577,1.93196 2.2398533,1.8556811 5.9867207 0 1 -2.23577,1.78609 2.2398533,1.8556811 5.9867207 0 1 -2.23606,-1.93196 2.2398533,1.8556811 5.9867207 0 1 2.07795,-1.786411 z m 0.15811,0.1749 a 2.0994111,1.6820724 5.2368844 0 0 -2.0964,1.61613 2.0994111,1.6820724 5.2368844 0 0 2.0964,1.75309 2.0994111,1.6820724 5.2368844 0 0 2.09638,-1.61646 2.0994111,1.6820724 5.2368844 0 0 -2.09638,-1.75276 z m 5.15228,1.03464 v 3.18e-4 a 2.2398533,1.8556811 5.9867207 0 1 0.15838,3.44e-4 2.2398533,1.8556811 5.9867207 0 1 2.23578,1.93162 2.2398533,1.8556811 5.9867207 0 1 -2.23578,1.78609 2.2398533,1.8556811 5.9867207 0 1 -2.23606,-1.93196 2.2398533,1.8556811 5.9867207 0 1 2.07768,-1.78641 z m 0.15838,0.1749 a 2.0994111,1.6820724 5.2368844 0 0 -2.09639,1.61613 2.0994111,1.6820724 5.2368844 0 0 2.09639,1.75309 2.0994111,1.6820724 5.2368844 0 0 2.09611,-1.61613 2.0994111,1.6820724 5.2368844 0 0 -2.09611,-1.75309 z"
       id="path5187" />
  </g>
</svg>
