<?xml version="1.0" encoding="UTF-8" standalone="no"?>
<svg
   xmlns:dc="http://purl.org/dc/elements/1.1/"
   xmlns:cc="http://creativecommons.org/ns#"
   xmlns:rdf="http://www.w3.org/1999/02/22-rdf-syntax-ns#"
   xmlns:svg="http://www.w3.org/2000/svg"
   xmlns="http://www.w3.org/2000/svg"
   id="svg4703"
   version="1.1"
   viewBox="0 0 40 30"
   height="30mm"
   width="40mm">
  <defs
     id="defs4697" />
  <metadata
     id="metadata4700">
    <rdf:RDF>
      <cc:Work
         rdf:about="">
        <dc:format>image/svg+xml</dc:format>
        <dc:type
           rdf:resource="http://purl.org/dc/dcmitype/StillImage" />
        <dc:title></dc:title>
      </cc:Work>
    </rdf:RDF>
  </metadata>
  <g
     transform="translate(-1.1666669,-1.5416633)"
     id="layer1">
    <path
       style="font-style:normal;font-weight:normal;font-size:4.96123266px;line-height:1.25;font-family:sans-serif;letter-spacing:0px;word-spacing:0px;fill:#aad400;fill-opacity:1;stroke:none;stroke-width:0.06627008"
       d="M 1.1666669,1.5416633 V 31.541663 H 41.166666 V 1.5416633 Z m 36.7386761,0.4905 0.703504,0.76072 0.703236,-0.76072 0.275291,0.2978 -0.703498,0.76099 0.703498,0.76073 -0.275291,0.29781 -0.703236,-0.76101 -0.703504,0.76101 -0.275293,-0.29781 0.703236,-0.76073 -0.703236,-0.76099 z m -3.078413,0.0717 h 2.191739 v 2.12594 H 34.82693 Z m 0.109108,0.28459 v 1.67394 h 1.981222 v -1.67394 z m -3.053458,1.36464 h 2.378631 v 0.4213 H 31.88258 Z M 1.9920189,5.5588433 H 40.341315 V 30.659393 H 1.9920189 Z m 4.739471,2.29508 v 0.65158 c -0.06222,-0.035 -0.121449,-0.0607 -0.177865,-0.077 -0.05642,-0.0171 -0.121053,-0.0255 -0.194062,-0.0255 -0.08047,0 -0.158648,0.0182 -0.234143,0.0539 -0.07467,0.0358 -0.140036,0.088 -0.196452,0.15622 -0.05724,0.07 -0.102971,0.15483 -0.136984,0.25444 -0.03319,0.0996 -0.04988,0.21315 -0.04988,0.34058 0,0.24502 0.04871,0.43642 0.145742,0.57464 0.0979,0.13821 0.229889,0.20734 0.395821,0.20734 0.08545,0 0.164585,-0.0176 0.237596,-0.0525 0.07301,-0.035 0.143055,-0.0839 0.210255,-0.14675 v 0.15767 h 0.233881 v -2.09463 z m 0.681999,0.0766 v 0.26246 h 0.263878 v -0.26246 z m -2.139175,0.36613 -1.436201,0.69066 v 0.16684 l 1.436201,0.69066 v -0.24239 l -1.132506,-0.53183 1.132506,-0.53157 z m 4.455152,0 v 0.24237 l 1.1325061,0.53157 -1.1325061,0.53183 v 0.24239 l 1.4362011,-0.69066 v -0.16684 z m -2.301109,0.14818 v 1.50364 h 0.234142 v -1.50364 z m 0.535188,0 0.558819,1.50364 h 0.235206 l 0.562539,-1.50364 h -0.245296 l -0.426881,1.19665 -0.430594,-1.19665 z m -1.564159,0.18982 c 0.0589,0 0.113219,0.006 0.162998,0.0172 0.04977,0.0117 0.106053,0.033 0.169106,0.0635 v 0.86296 c -0.0589,0.0502 -0.122311,0.0915 -0.190343,0.12377 -0.06803,0.0313 -0.135124,0.0471 -0.201491,0.0471 -0.124449,0 -0.2149,-0.0463 -0.271317,-0.13871 -0.05641,-0.0934 -0.08469,-0.22917 -0.08469,-0.40778 0,-0.18128 0.03637,-0.32141 0.109378,-0.42013 0.07301,-0.0987 0.175272,-0.1479 0.306357,-0.1479 z m 3.022665,2.6652497 v 2.09492 h 0.233882 v -1.12284 c 0.06388,-0.053 0.130736,-0.0966 0.200428,-0.13067 0.06969,-0.034 0.136551,-0.0511 0.2004331,-0.0511 0.06222,0 0.112854,0.01 0.15185,0.0284 0.03899,0.018 0.06872,0.0455 0.08946,0.0832 0.01993,0.0341 0.0337,0.0817 0.04115,0.14272 0.0074,0.0602 0.01115,0.12475 0.01115,0.19385 v 0.85635 h 0.234149 v -0.9761 c 0,-0.18399 -0.03956,-0.32489 -0.118402,-0.42272 -0.07882,-0.0978 -0.193354,-0.14674 -0.343518,-0.14674 -0.08214,0 -0.1620021,0.0183 -0.2399901,0.0552 -0.07799,0.0368 -0.153706,0.0881 -0.226711,0.15362 v -0.75811 z m 5.3237761,0 v 2.09492 h 0.234149 v -2.09492 z m 18.628701,0 -0.888534,2.50414 h 0.2153 l 0.892254,-2.50414 z m 0.538914,0 v 2.09492 h 0.233881 v -1.12284 c 0.06388,-0.053 0.130736,-0.0966 0.20043,-0.13067 0.06969,-0.034 0.136284,-0.0511 0.200163,-0.0511 0.06223,0 0.112861,0.01 0.151852,0.0284 0.03899,0.018 0.06899,0.0455 0.08973,0.0832 0.01992,0.0341 0.0337,0.0817 0.04115,0.14272 0.0074,0.0602 0.01114,0.12475 0.01114,0.19385 v 0.85635 h 0.233879 v -0.9761 c 0,-0.18399 -0.0393,-0.32489 -0.118136,-0.42272 -0.07882,-0.0978 -0.193353,-0.14674 -0.343522,-0.14674 -0.08213,0 -0.162264,0.0183 -0.240252,0.0552 -0.07799,0.0368 -0.153438,0.0881 -0.226447,0.15362 v -0.75811 z m -10.958954,0.077 v 0.26248 h 0.263878 v -0.26248 z m -11.372024,0.007 c -0.0031,0.0584 -0.01608,0.10515 -0.03847,0.14015 -0.02158,0.0341 -0.05157,0.0623 -0.08973,0.0847 -0.03071,0.018 -0.07592,0.0318 -0.135659,0.0416 -0.05973,0.009 -0.115776,0.0135 -0.168043,0.0135 v 0.18322 h 0.386 v 1.34339 h -0.386 v 0.20476 h 1.003219 v -0.20476 h -0.378298 v -1.8066 z m 24.491391,0 c -0.0036,0.0584 -0.01635,0.10515 -0.03878,0.14015 -0.02159,0.0341 -0.05132,0.0623 -0.08946,0.0847 -0.03072,0.018 -0.07592,0.0318 -0.135657,0.0416 -0.05974,0.009 -0.115776,0.0135 -0.168042,0.0135 v 0.18322 h 0.385731 v 1.34339 h -0.385731 v 0.20476 h 1.002951 v -0.20476 h -0.378295 v -1.8066 z m -27.2154001,0.35954 -1.436207,0.69038 v 0.16713 l 1.436207,0.69063 v -0.24236 l -1.132506,-0.53185 1.132506,-0.53184 z m 3.9024361,0 v 0.24209 l 1.132506,0.53184 -1.132506,0.53185 v 0.24236 l 1.436206,-0.69063 v -0.16713 z m 19.428841,0 -1.436206,0.69038 v 0.16713 l 1.436206,0.69063 v -0.24236 l -1.132506,-0.53185 1.132506,-0.53184 z m 5.062548,0 v 0.24209 l 1.132507,0.53184 -1.132507,0.53185 v 0.24236 l 1.436209,-0.69063 v -0.16713 z m -21.273068,0.10626 c -0.196626,0 -0.352942,0.0712 -0.469093,0.21395 -0.11532,0.1418 -0.173087,0.33537 -0.173083,0.58037 0,0.24501 0.05777,0.43828 0.173083,0.58009 0.116151,0.14181 0.272467,0.21279 0.469093,0.21279 0.194967,0 0.350547,-0.0711 0.466699,-0.21279 0.116152,-0.14181 0.174151,-0.33508 0.174151,-0.58009 0,-0.245 -0.05799,-0.43857 -0.174151,-0.58037 -0.116152,-0.1427 -0.271732,-0.21395 -0.466699,-0.21395 z m 2.671975,0 c -0.202437,0 -0.365882,0.0723 -0.490325,0.21681 -0.123622,0.14449 -0.185566,0.33965 -0.185566,0.58555 0,0.2486 0.06489,0.44054 0.194324,0.57607 0.129427,0.13462 0.309326,0.20188 0.539972,0.20188 0.09043,0 0.176699,-0.0119 0.258833,-0.0362 0.08214,-0.0242 0.162766,-0.0542 0.241581,-0.0902 v -0.27598 h -0.01248 c -0.04064,0.0394 -0.109237,0.0798 -0.205477,0.12118 -0.09541,0.0404 -0.190271,0.0606 -0.284848,0.0606 -0.07135,0 -0.136983,-0.0109 -0.196719,-0.0325 -0.0589,-0.0215 -0.110033,-0.0536 -0.153176,-0.0968 -0.0448,-0.0439 -0.07994,-0.10007 -0.105657,-0.16827 -0.02574,-0.0691 -0.03847,-0.14994 -0.03847,-0.24237 h 1.024188 v -0.13728 c 0,-0.21809 -0.05112,-0.38639 -0.153177,-0.50485 -0.101218,-0.11846 -0.245486,-0.17776 -0.432983,-0.17776 z m 1.625219,0 c -0.08213,0 -0.159808,0.0184 -0.232818,0.0552 -0.07219,0.0368 -0.144678,0.0881 -0.217688,0.15363 v -0.16713 h -0.233882 v 1.50392 H 19.8259 v -1.12285 c 0.06388,-0.053 0.127788,-0.0965 0.191673,-0.13066 0.06471,-0.0341 0.128846,-0.0511 0.192733,-0.0511 0.0672,0 0.118828,0.01 0.1545,0.0296 0.03566,0.0188 0.06295,0.0476 0.08203,0.0862 0.01741,0.0359 0.02871,0.084 0.0337,0.14415 0.0058,0.0592 0.0087,0.12198 0.0087,0.18839 v 0.85635 h 0.233881 v -0.9626 c 0,-0.027 -10e-4,-0.0537 -0.0025,-0.0807 -0.0016,-0.0278 -0.0036,-0.0523 -0.0061,-0.0729 0.06554,-0.0548 0.131173,-0.0994 0.196713,-0.13439 0.06554,-0.0359 0.130912,-0.0539 0.196452,-0.0539 0.06719,0 0.118828,0.01 0.154507,0.0296 0.03566,0.0198 0.06294,0.049 0.08203,0.0876 0.01741,0.0359 0.02871,0.0841 0.0337,0.14418 0.0058,0.0602 0.0085,0.12233 0.0085,0.18694 v 0.85635 h 0.234143 v -0.9761 c 0,-0.17948 -0.03663,-0.31908 -0.109638,-0.41869 -0.07218,-0.10051 -0.184492,-0.15077 -0.337149,-0.15077 -0.08877,0 -0.172085,0.0194 -0.250074,0.058 -0.07799,0.0377 -0.164256,0.0994 -0.258838,0.1855 -0.03237,-0.0762 -0.08176,-0.13582 -0.148131,-0.17891 -0.06554,-0.043 -0.145675,-0.0646 -0.240251,-0.0646 z m 4.074465,0 c -0.08794,0 -0.171027,0.0194 -0.249015,0.0581 -0.07716,0.0377 -0.146702,0.0848 -0.208924,0.1413 v -0.15783 h -0.234148 v 2.05844 h 0.234148 v -0.63006 c 0.06056,0.0359 0.119789,0.0625 0.177865,0.0796 0.0589,0.0171 0.124535,0.0255 0.196718,0.0255 0.08296,0 0.161366,-0.0181 0.235208,-0.0539 0.07466,-0.0367 0.139304,-0.0884 0.194056,-0.15477 0.0589,-0.07 0.10463,-0.15537 0.136985,-0.25589 0.03237,-0.10141 0.04834,-0.21306 0.04834,-0.33513 0,-0.2432 -0.04669,-0.43303 -0.140431,-0.56946 -0.09292,-0.13731 -0.223185,-0.2059 -0.390775,-0.2059 z m 4.522317,0 c -0.08213,0 -0.159546,0.0184 -0.232555,0.0552 -0.07218,0.0368 -0.144942,0.0881 -0.217951,0.15363 v -0.16713 h -0.233881 v 1.50392 h 0.233881 v -1.12285 c 0.06388,-0.053 0.127788,-0.0965 0.191669,-0.13066 0.06471,-0.0341 0.129117,-0.0511 0.192998,-0.0511 0.0672,0 0.118568,0.01 0.154239,0.0296 0.03566,0.0188 0.06295,0.0476 0.08203,0.0862 0.01741,0.0359 0.02871,0.084 0.0337,0.14415 0.0058,0.0592 0.0088,0.12198 0.0088,0.18839 v 0.85635 h 0.233881 v -0.9626 c 0,-0.027 -5.29e-4,-0.0537 -0.0024,-0.0807 -0.0016,-0.0278 -0.0041,-0.0523 -0.0063,-0.0729 0.06554,-0.0548 0.131172,-0.0994 0.196717,-0.13439 0.06554,-0.0359 0.131168,-0.0539 0.196716,-0.0539 0.06719,0 0.118559,0.01 0.154238,0.0296 0.0357,0.0198 0.06294,0.049 0.08203,0.0876 0.01741,0.0359 0.02871,0.0841 0.0337,0.14418 0.0058,0.0602 0.0088,0.12233 0.0088,0.18694 v 0.85635 h 0.233881 v -0.9761 c 0,-0.17948 -0.03663,-0.31908 -0.109643,-0.41869 -0.07218,-0.10051 -0.184492,-0.15077 -0.337148,-0.15077 -0.08877,0 -0.172088,0.0194 -0.250074,0.058 -0.07799,0.0377 -0.164259,0.0994 -0.258834,0.1855 -0.03237,-0.0762 -0.08177,-0.13582 -0.148135,-0.17891 -0.06554,-0.043 -0.145672,-0.0646 -0.240252,-0.0646 z m -3.152216,0.006 c -0.08877,0 -0.169131,0.0125 -0.241314,0.0376 -0.07135,0.0242 -0.130346,0.0574 -0.176802,0.0997 -0.04814,0.043 -0.08426,0.0919 -0.108313,0.14672 -0.02322,0.0548 -0.03478,0.11298 -0.03478,0.1749 0,0.0987 0.02532,0.1822 0.07592,0.25042 0.05143,0.0673 0.137939,0.11863 0.259896,0.15363 0.04397,0.0126 0.09265,0.0239 0.145747,0.0347 0.05393,0.0108 0.09742,0.0203 0.130614,0.0284 0.0896,0.0216 0.150319,0.0477 0.181847,0.0781 0.03154,0.0305 0.04726,0.0754 0.04726,0.13469 0,0.0771 -0.02898,0.13353 -0.08707,0.16942 -0.05808,0.0359 -0.138704,0.054 -0.241582,0.054 -0.08296,0 -0.169728,-0.0176 -0.260158,-0.0526 -0.09044,-0.0359 -0.172522,-0.084 -0.246359,-0.14416 h -0.01248 v 0.28403 c 0.05808,0.0313 0.129843,0.0606 0.215295,0.0876 0.08629,0.026 0.180917,0.0391 0.283789,0.0391 0.181697,0 0.324738,-0.0439 0.42927,-0.13182 0.105368,-0.088 0.158221,-0.20068 0.158221,-0.33799 0,-0.1095 -0.02949,-0.19749 -0.0884,-0.26391 -0.0589,-0.0656 -0.142716,-0.11179 -0.251398,-0.13871 -0.03565,-0.009 -0.0804,-0.0188 -0.134334,-0.0296 -0.0531,-0.0108 -0.101274,-0.0214 -0.144416,-0.0322 -0.07799,-0.0198 -0.134523,-0.0453 -0.169369,-0.0766 -0.03566,-0.0314 -0.05336,-0.0782 -0.05336,-0.14014 0,-0.07 0.02949,-0.12237 0.0884,-0.15737 0.0589,-0.0359 0.130906,-0.0539 0.216358,-0.0539 0.08214,0 0.165952,0.0168 0.251404,0.05 0.08545,0.0323 0.158215,0.0722 0.217952,0.11976 h 0.01248 v -0.27081 c -0.05641,-0.0313 -0.127453,-0.0577 -0.212905,-0.0793 -0.08463,-0.0225 -0.168439,-0.0336 -0.251405,-0.0336 z m -8.737479,0.0362 v 1.50392 h 0.233882 v -1.06771 c 0.06222,-0.0548 0.127119,-0.0991 0.194324,-0.13325 0.0672,-0.035 0.136747,-0.0526 0.208925,-0.0526 0.0448,0 0.08339,0.003 0.115746,0.008 0.03318,0.003 0.06735,0.01 0.102205,0.0187 h 0.01223 v -0.25963 c -0.03652,-0.007 -0.06377,-0.0106 -0.08203,-0.0123 -0.01823,-0.003 -0.04778,-0.004 -0.0884,-0.004 -0.07384,0 -0.146338,0.017 -0.217689,0.0511 -0.07052,0.0332 -0.152375,0.0904 -0.245296,0.17115 v -0.22227 z m 5.985863,0 v 1.50392 h 0.234148 v -1.50392 z m 3.596614,0 v 0.9761 c 0,0.18667 0.04054,0.32837 0.121853,0.42529 0.0813,0.096 0.195112,0.14417 0.341132,0.14417 0.08711,0 0.166743,-0.0182 0.238925,-0.054 0.07218,-0.0359 0.147629,-0.0875 0.226444,-0.15478 v 0.16712 h 0.233885 v -1.50391 h -0.233885 v 1.12284 c -0.06222,0.053 -0.12931,0.0966 -0.201492,0.13066 -0.07135,0.0341 -0.137477,0.0511 -0.198039,0.0511 -0.06803,0 -0.119892,-0.009 -0.15557,-0.027 -0.0357,-0.018 -0.06468,-0.0466 -0.08707,-0.0862 -0.02158,-0.0386 -0.03554,-0.0849 -0.04223,-0.1387 -0.0066,-0.0548 -0.01007,-0.12015 -0.01007,-0.19643 v -0.85634 z m -7.927261,0.16713 c 0.124448,0 0.216855,0.0361 0.277418,0.10885 0.0614,0.0727 0.09262,0.17558 0.09345,0.30841 h -0.796415 c 0.01,-0.11847 0.05173,-0.21765 0.125568,-0.29751 0.07467,-0.0799 0.174707,-0.11975 0.299983,-0.11975 z m -2.659497,0.009 c 0.125275,0 0.223088,0.0476 0.293611,0.14273 0.07052,0.0942 0.105924,0.23887 0.105924,0.43363 0,0.19026 -0.03566,0.33383 -0.106987,0.43075 -0.07052,0.096 -0.1681,0.14388 -0.292548,0.14388 -0.126109,0 -0.224423,-0.0484 -0.294942,-0.1453 -0.07052,-0.0978 -0.105657,-0.24086 -0.105657,-0.42933 0,-0.19476 0.03462,-0.3394 0.104331,-0.43363 0.07052,-0.0951 0.169328,-0.14273 0.296268,-0.14273 z m 8.31193,0.023 c 0.118638,0 0.206633,0.045 0.263877,0.13469 0.05724,0.0898 0.08574,0.22533 0.08574,0.40662 0,0.18667 -0.03663,0.32759 -0.109642,0.42272 -0.07301,0.0951 -0.174506,0.14245 -0.30476,0.14245 -0.06057,0 -0.114883,-0.006 -0.163003,-0.0172 -0.04732,-0.0116 -0.104059,-0.0337 -0.170432,-0.066 v -0.85233 c 0.06222,-0.0512 0.127357,-0.0923 0.195388,-0.12376 0.06803,-0.0314 0.135618,-0.0471 0.202822,-0.0471 z m -17.8320261,2.65605 -0.888802,2.50385 h 0.215301 l 0.892515,-2.50385 z m 1.43222,0 v 0.65159 c -0.06222,-0.035 -0.121449,-0.0605 -0.177864,-0.0766 -0.05641,-0.0171 -0.121049,-0.0255 -0.194059,-0.0255 -0.08048,2e-5 -0.158647,0.0178 -0.234148,0.0537 -0.07467,0.0359 -0.14003,0.088 -0.196451,0.15621 -0.05724,0.07 -0.102966,0.15481 -0.136979,0.25443 -0.03319,0.0996 -0.04993,0.21316 -0.04993,0.3406 0,0.24499 0.04871,0.4367 0.145747,0.5749 0.09789,0.13822 0.22989,0.20735 0.395817,0.20735 0.08546,0 0.16459,-0.0176 0.2376,-0.0526 0.073,-0.035 0.14305,-0.0839 0.21025,-0.14675 v 0.15737 h 0.233881 v -2.09463 z m 0.681998,0.0766 v 0.26247 h 0.263878 v -0.26247 z m -3.29902,0.36614 -1.436201,0.69065 v 0.16686 l 1.436201,0.69063 v -0.24237 l -1.132506,-0.53155 1.132506,-0.53184 z m 5.6149991,0 v 0.24238 l 1.132504,0.53184 -1.132504,0.53155 v 0.24237 l 1.436206,-0.69063 v -0.16686 z m -2.3011111,0.14819 v 1.50363 h 0.234148 v -1.50363 z m 0.535194,0 0.558818,1.50363 h 0.235207 l 0.5625341,-1.50363 h -0.245297 l -0.4268751,1.19664 -0.430599,-1.19664 z m -1.564164,0.18981 c 0.0589,0 0.113219,0.006 0.163003,0.0175 0.04978,0.0117 0.106047,0.0326 0.169101,0.0632 v 0.86295 c -0.0589,0.0503 -0.122311,0.0915 -0.190343,0.12376 -0.06804,0.0314 -0.13512,0.0471 -0.201492,0.0471 -0.124448,0 -0.214894,-0.046 -0.27131,-0.13842 -0.05642,-0.0934 -0.08469,-0.22948 -0.08469,-0.40806 0,-0.18129 0.03636,-0.32113 0.10937,-0.41985 0.07301,-0.0987 0.175272,-0.14818 0.306358,-0.14818 z"
       id="text4681" />
  </g>
</svg>
