<?xml version="1.0" encoding="UTF-8" standalone="no"?>
<svg
   xmlns:dc="http://purl.org/dc/elements/1.1/"
   xmlns:cc="http://creativecommons.org/ns#"
   xmlns:rdf="http://www.w3.org/1999/02/22-rdf-syntax-ns#"
   xmlns:svg="http://www.w3.org/2000/svg"
   xmlns="http://www.w3.org/2000/svg"
   id="svg4712"
   version="1.1"
   viewBox="0 0 70 70"
   height="70mm"
   width="70mm">
  <defs
     id="defs4706" />
  <metadata
     id="metadata4709">
    <rdf:RDF>
      <cc:Work
         rdf:about="">
        <dc:format>image/svg+xml</dc:format>
        <dc:type
           rdf:resource="http://purl.org/dc/dcmitype/StillImage" />
        <dc:title></dc:title>
      </cc:Work>
    </rdf:RDF>
  </metadata>
  <g
     transform="translate(0,-227)"
     id="layer1">
    <path
       id="path4720"
       d="m 36.725098,227.42634 c 2.198837,4.79388 3.280377,10.22724 2.099044,15.51385 l -3.832568,19.40026 14.918521,-23.30169 c -3.186031,-6.85782 -7.519907,-9.80553 -13.184997,-11.61242 z m -1.733524,34.91411 27.025237,-5.92796 c 2.59624,-7.1021 1.61657,-12.25089 -1.1116,-17.53446 -1.834918,4.94464 -4.912278,9.55188 -9.485742,12.45474 z m 0,0 23.301251,14.91826 c 6.857676,-3.18607 9.805336,-7.51951 11.612196,-13.1847 -4.7938,2.19885 -10.22704,3.28044 -15.513566,2.09908 z m 0,0 5.927847,27.02576 c 7.101971,2.59628 12.25066,1.61607 17.534123,-1.11216 -4.944528,-1.83496 -9.551154,-4.91237 -12.453958,-9.48592 z m 0,0 -14.917979,23.3017 c 3.186028,6.85781 7.519907,9.80552 13.184994,11.61241 -2.198837,-4.79388 -3.280914,-10.22724 -2.099581,-15.51386 z m 0,0 -27.0246966,5.92796 c -2.596237,7.10211 -1.616575,12.25089 1.111605,17.53446 1.8349096,-4.94463 4.9122726,-9.55188 9.4857356,-12.45473 z m 0,0 -23.301248,-14.91827 C 4.8326564,250.60826 1.8855324,254.94169 0.07867139,260.60689 4.8724654,258.40804 10.305712,257.32644 15.592232,258.50781 Z m 0,0 -5.927308,-27.02576 c -7.101965,-2.59628 -12.250657,-1.61606 -17.534122,1.11217 4.944527,1.83494 9.551151,4.91182 12.453957,9.48537 z"
       style="fill:#000000;stroke:#000000;stroke-width:0.10582992px;stroke-linecap:butt;stroke-linejoin:miter;stroke-opacity:1" />
  </g>
</svg>
